<?xml version="1.0" encoding="utf-8"?>
<svg xmlns="http://www.w3.org/2000/svg" x="0px" y="0px" width="250px" height="250px">
<path fill="#CB2C30" stroke="#CB2C30" stroke-width="1.1157" d="M35.12,134.57c-1.45,1.82-4.1,2.78-6.12,2.89
	c-2.41,0.13-4.63-0.53-6.47-2.07c-1.5-1.26-2.71-3.15-2.86-6.05c-0.11-2.13,0.33-3.92,0.73-4.76c0.15-0.34,0.12-0.45-0.05-0.49
	l-0.59-0.16c-0.14-0.04-0.15-0.09-0.17-0.44c-0.02-0.35,0.03-0.4,0.35-0.42c0.45-0.02,4.41-0.66,5.11-0.81
	c0.16-0.03,0.28-0.02,0.31,0.1l0.17,0.51c0.05,0.11-0.03,0.21-0.24,0.29c-0.92,0.31-2.09,1.01-3.04,2.04
	c-0.93,1.06-1.64,2.34-1.54,4.12c0.18,3.42,3.37,4.71,6.84,4.5c1.47-0.08,4.33-0.66,6-2.41c1.49-1.61,1.61-2.95,1.56-3.75
	c-0.14-2.67-1.47-4.6-2.8-5.4c-0.2-0.11-0.29-0.22-0.2-0.34l0.33-0.42c0.04-0.07,0.13-0.1,0.28-0.02c2.04,1.25,4.06,3.43,4.24,6.73
	C37.1,131.34,36.35,133.02,35.12,134.57z M38.11,109.75c0.62-3.65-0.44-5.85-2.05-7.68c-1.42-1.48-3.09-2.31-4.77-2.59
	c-3.19-0.54-5.77,0.47-7.45,2c-1.86,1.68-2.46,3.41-2.78,5.33c-0.35,2.08-0.33,4.77,1.8,7.23c1.85,2.15,3.98,2.89,5.4,3.13
	c3.38,0.57,6.17-0.76,7.45-2.24C37.13,113.3,37.84,111.35,38.11,109.75z M37.06,109.38c-0.32,1.92-3.01,4.96-8.93,3.96
	c-1.9-0.32-4.21-1.43-5.27-3.01c-1.12-1.64-0.81-2.78-0.73-3.24c0.33-1.94,3.67-4.8,8.73-3.94
	C32.75,103.47,37.78,105.1,37.06,109.38z M33.37,90.17c-1.53-0.6-4.8-1.96-5.08-2.07c-0.59-0.23-0.77-0.41-0.51-1.08l0.41-1.03
	c0.07-0.17,0.02-0.24-0.09-0.29l-0.5-0.2c-0.16-0.06-0.23-0.06-0.3,0.11c-0.08,0.2-0.37,1.14-1.37,3.69
	c-0.78,1.99-1.16,2.75-1.25,2.99c-0.05,0.13-0.02,0.17,0.09,0.21l0.52,0.2c0.11,0.05,0.23,0.07,0.28-0.06l0.32-0.81
	c0.2-0.5,0.46-0.52,1.05-0.34c0.36,0.12,2.69,0.98,4.08,1.53l1.23,0.48c1.33,0.52,6.74,2.72,7.16,2.88
	c0.24,0.09,0.49,0.34,0.18,1.15l-0.27,0.68c-0.05,0.13-0.02,0.17,0.09,0.21l0.55,0.21c0.15,0.06,0.2,0.05,0.27-0.1
	c0.11-0.28,0.35-1.09,1.2-3.26c0.79-2.01,3.28-8.29,3.54-8.84c-0.54-0.36-3.8-2.65-3.93-2.77c-0.12-0.08-0.14-0.08-0.21-0.03
	L40.47,84c-0.12,0.11-0.08,0.2,0.03,0.31c0.68,0.65,2.72,3.16,2.37,4.38c-0.35,1.22-0.74,2.21-1.14,3.23l-0.49,1.25
	c-0.9-0.28-5.62-2.13-5.99-2.27L33.37,90.17z M41.12,74.16c-1.39-0.87-4.37-2.8-4.62-2.96c-0.54-0.33-0.69-0.54-0.3-1.16l0.58-0.94
	c0.1-0.16,0.07-0.23-0.03-0.3l-0.46-0.28c-0.14-0.09-0.21-0.1-0.31,0.05c-0.11,0.18-0.57,1.05-2.02,3.38
	c-1.13,1.81-1.63,2.49-1.77,2.71c-0.08,0.12-0.05,0.16,0.05,0.23l0.48,0.3c0.1,0.06,0.21,0.1,0.28-0.02l0.46-0.74
	c0.29-0.46,0.55-0.43,1.09-0.15c0.33,0.18,2.47,1.45,3.74,2.24l1.12,0.7c1.21,0.76,6.14,3.9,6.51,4.14
	c0.22,0.14,0.42,0.43-0.03,1.17l-0.38,0.62c-0.07,0.12-0.05,0.16,0.05,0.23l0.5,0.31c0.14,0.09,0.19,0.09,0.28-0.05
	c0.16-0.26,0.55-1.02,1.77-2.99c1.14-1.83,4.73-7.56,5.09-8.05c-0.47-0.45-3.26-3.3-3.36-3.44c-0.11-0.09-0.12-0.11-0.2-0.07
	l-0.41,0.3c-0.13,0.08-0.11,0.18-0.03,0.31c0.55,0.76,2.1,3.6,1.53,4.73c-0.57,1.14-1.13,2.04-1.71,2.97l-0.71,1.14
	c-0.83-0.44-5.14-3.12-5.48-3.33L41.12,74.16z M47.67,54.56l2.19-2.2c0.45-0.45,1.12-0.72,1.68-0.87c0.61-0.17,3.59-0.27,3.81-0.23
	c0.13,0.03,0.23-0.04,0.26-0.14l0.12-0.4c0.03-0.13,0-0.16-0.12-0.21c-0.23-0.09-3.11-1.72-3.42-1.88
	c-0.07-0.03-0.13-0.03-0.21,0.06c-0.08,0.08-0.35,0.44-0.61,0.72l-5.61,6.03c-1.46,1.56-2.07,2.11-2.42,2.49
	c-0.1,0.1-0.04,0.18,0.01,0.23l0.41,0.38c0.12,0.11,0.19,0.14,0.25,0.07l0.62-0.67c0.43-0.46,0.71-0.52,1.33-0.08
	c0.19,0.14,2.33,2.08,3.75,3.41l5.74,5.37c0.6,0.56,0.66,0.74-0.08,1.53l-0.48,0.52c-0.12,0.12-0.11,0.22-0.01,0.31l0.36,0.34
	c0.14,0.13,0.22,0.14,0.33,0.02c0.15-0.16,0.34-0.39,0.66-0.77c0.32-0.34,0.75-0.84,1.35-1.48c2.77-2.96,4.49-4.76,5.53-5.88
	c1.04-1.08,1.41-1.44,1.49-1.53c0.19-0.21,0.2-0.42,0.1-0.62l-1.87-3.19c-0.03-0.07-0.1-0.1-0.2-0.06l-0.44,0.13
	c-0.08,0.02-0.11,0.09-0.11,0.22c0.09,0.73,0.26,2.68,0.2,3.46c-0.05,0.78-0.37,1.45-0.65,1.83c-0.3,0.39-0.96,1.12-1.23,1.42
	c-0.8,0.86-1.16,1.13-1.5,1.3c-0.31,0.13-0.8,0.03-1.69-0.81c-0.31-0.29-2.05-1.76-2.98-2.62l-1.03-0.96
	c0.7-0.76,1.24-1.25,1.74-1.65c0.37-0.3,0.98-0.5,1.48-0.38c0.3,0.09,0.86,0.29,1.2,0.47c0.15,0.08,0.22,0.08,0.27-0.01l0.3-0.49
	c0.06-0.1,0.11-0.19-0.01-0.27c-0.39-0.3-1.28-1-2.05-1.72c-0.6-0.56-1.49-1.4-1.73-1.72c-0.09-0.11-0.17-0.06-0.27,0.01l-0.48,0.41
	c-0.08,0.09-0.09,0.17,0.03,0.28c0.33,0.3,0.61,0.96,0.7,1.39c0.07,0.54,0,0.93-0.21,1.28c-0.14,0.25-0.8,1.06-1.53,1.84
	L47.67,54.56z M77.05,43.53c-0.39-0.55-0.24-0.87,0.11-1.11l0.55-0.39c0.12-0.08,0.11-0.13,0.03-0.25l-0.34-0.48
	c-0.07-0.1-0.13-0.14-0.28-0.03c-0.15,0.11-0.82,0.67-2.59,1.91c-1.72,1.22-2.7,1.82-2.88,1.94c-0.11,0.08-0.09,0.15-0.04,0.23
	l0.34,0.48c0.07,0.1,0.14,0.16,0.26,0.08l0.81-0.57c0.48-0.34,0.8-0.28,1.29,0.41l0.98,1.38c0.7,1,1.1,1.64,0.83,2.11
	c-0.41,0.75-0.9,1.21-1.9,1.91c-1.3,0.92-2.31,1.03-3.85,0.77c-1.77-0.3-3.79-1.83-5.39-4.1c-1.22-1.72-1.69-3.77-1.55-5.45
	c0.12-1.75,0.84-2.75,1.88-3.48c1.3-0.92,2.62-1.13,3.87-0.95c1.35,0.16,2.83,0.96,3.8,1.68c0.18,0.13,0.27,0.13,0.37,0.03
	l0.45-0.49c0.06-0.07,0.02-0.18-0.16-0.4l-3.08-3.75c-0.15-0.21-0.3-0.3-0.51-0.16c-0.11,0.08-0.11,0.16-0.11,0.37l0.02,0.44
	c-0.01,0.23-0.12,0.37-0.44,0.4c-0.92,0.05-2.73,0.52-4.67,1.89c-2.3,1.62-3.57,3.49-4.1,5.71c-0.55,2.2-0.06,4.64,1.17,6.38
	c1.64,2.32,3.38,3.53,5.48,4.03c2.42,0.62,5.11-0.33,7.1-1.74c2.44-1.72,3.75-3.31,4.75-5.19c0.14-0.21,0.2-0.37,0.09-0.52
	c-0.11-0.16-0.32-0.29-0.51-0.56L77.05,43.53z M83.03,29.05l2.89-1.12c0.59-0.22,1.31-0.2,1.89-0.11c0.62,0.09,3.39,1.22,3.57,1.34
	c0.11,0.08,0.23,0.06,0.3-0.02l0.27-0.32c0.08-0.11,0.06-0.15-0.02-0.24c-0.18-0.18-2.14-2.84-2.35-3.11
	c-0.05-0.05-0.11-0.08-0.22-0.04c-0.11,0.05-0.5,0.26-0.84,0.41l-7.58,3.22c-1.97,0.83-2.75,1.09-3.23,1.28
	c-0.13,0.05-0.12,0.15-0.09,0.22l0.22,0.52c0.06,0.15,0.11,0.21,0.2,0.17l0.84-0.35c0.59-0.25,0.87-0.19,1.24,0.47
	c0.11,0.21,1.27,2.85,2.03,4.65l3.05,7.24c0.32,0.76,0.3,0.95-0.7,1.37l-0.65,0.27c-0.15,0.06-0.19,0.16-0.13,0.29l0.19,0.45
	c0.07,0.17,0.14,0.22,0.29,0.16c0.2-0.08,0.47-0.22,0.91-0.43c0.43-0.18,1.03-0.46,1.83-0.8c3.74-1.58,6.04-2.52,7.45-3.11
	c1.39-0.56,1.88-0.74,1.99-0.78c0.26-0.11,0.35-0.3,0.34-0.53l-0.41-3.67c0-0.07-0.05-0.13-0.16-0.14l-0.46-0.06
	c-0.09-0.02-0.14,0.03-0.19,0.16c-0.21,0.7-0.86,2.55-1.23,3.24c-0.37,0.69-0.93,1.18-1.34,1.41c-0.43,0.23-1.33,0.64-1.7,0.8
	c-1.08,0.45-1.52,0.56-1.9,0.57c-0.33-0.01-0.74-0.3-1.21-1.43c-0.16-0.39-1.16-2.44-1.65-3.61l-0.55-1.3
	c0.95-0.4,1.64-0.64,2.26-0.8c0.46-0.12,1.1-0.05,1.51,0.26c0.24,0.2,0.66,0.61,0.9,0.92c0.11,0.13,0.17,0.16,0.24,0.1l0.48-0.33
	c0.1-0.07,0.18-0.13,0.1-0.24c-0.23-0.44-0.76-1.44-1.16-2.41c-0.32-0.76-0.8-1.88-0.88-2.27c-0.03-0.14-0.13-0.13-0.25-0.1
	L88.5,31.4c-0.11,0.05-0.16,0.12-0.09,0.27c0.17,0.41,0.17,1.12,0.07,1.55c-0.16,0.53-0.38,0.85-0.71,1.09
	c-0.23,0.17-1.16,0.64-2.15,1.06L83.03,29.05z M113.78,30.29c0.39,0.8,1.69,3.66,2.01,4.47c0.22,0.59,0.04,0.85-0.59,0.93
	l-0.66,0.09c-0.11,0.02-0.12,0.11-0.11,0.23l0.06,0.44c0.02,0.16,0.06,0.3,0.3,0.27c0.46-0.06,1.27-0.24,3.2-0.49
	c2.98-0.39,3.48-0.38,3.92-0.45c0.19-0.02,0.19-0.19,0.17-0.33L122.02,35c-0.02-0.12-0.05-0.21-0.19-0.19l-0.79,0.1
	c-0.35,0.05-0.99-0.16-1.48-0.87c-0.41-0.59-2.49-4.71-3.26-6.46c-0.64-1.43-3.14-6.4-3.77-7.81c-0.1-0.25-0.17-0.38-0.31-0.36
	c-0.12,0.02-0.17,0.12-0.27,0.25c-0.3,0.44-1.73,1.25-2.45,1.51c-0.18,0.07-0.21,0.17-0.21,0.24c0.01,0.09,0.12,0.19,0.2,0.28
	c0.2,0.23,0.12,0.55,0.08,0.79c-0.12,0.66-1.35,5.9-1.48,6.4c-0.5,2.15-1.62,6.41-1.88,6.94c-0.37,0.76-0.89,1.16-1.45,1.23
	l-0.6,0.08c-0.14,0.02-0.15,0.09-0.14,0.23l0.06,0.44c0.02,0.16,0.06,0.3,0.2,0.28c0.33-0.04,0.83-0.18,2.52-0.4
	c1.91-0.25,2.87-0.31,3.17-0.35c0.19-0.02,0.2-0.1,0.18-0.28l-0.07-0.51c-0.01-0.09-0.05-0.18-0.28-0.15l-0.81,0.11
	c-0.7,0.09-0.98-0.44-1.05-0.95c-0.1-0.75,0.62-4.08,0.74-4.6L113.78,30.29z M108.87,29.99c0.11-0.61,1.39-6.36,1.46-6.68
	c0.04-0.22,0.1-0.32,0.24-0.34c0.12-0.02,0.18,0.14,0.32,0.48c0.24,0.56,2.25,5.26,2.55,5.94L108.87,29.99z M129.61,26.41
	c-0.03,0.45-0.5,7.63-0.58,8.12c-0.07,0.42-0.37,0.68-0.84,0.65l-1.19-0.08c-0.14-0.01-0.17,0.06-0.18,0.23l-0.03,0.44
	c-0.01,0.19,0.01,0.28,0.19,0.3c0.33,0.02,1.32,0.02,3.8,0.18c2.6,0.17,3.34,0.29,3.58,0.3c0.21,0.01,0.24-0.05,0.25-0.17l0.04-0.54
	c0.01-0.16-0.01-0.23-0.22-0.25l-1.05-0.07c-0.56-0.03-0.73-0.4-0.73-0.99c0-0.35,0.43-6.91,0.45-7.23l0.42-6.44l0.77,0.05
	c0.54,0.04,2.62,0.27,3.18,0.66c0.55,0.6,1.38,1.88,1.84,2.76c0.08,0.17,0.13,0.24,0.22,0.23l0.51-0.16
	c0.07-0.02,0.12-0.11,0.11-0.2c-0.1-1.25-0.36-4.19-0.4-4.7c-0.03-0.29-0.09-0.38-0.26-0.39c-0.16-0.01-0.31,0.09-0.56,0.31
	c-0.3,0.26-1.23,0.48-1.75,0.47c-0.99-0.02-2,0.01-4.55-0.16l-1.36-0.09c-2.44-0.16-3.41-0.29-4.65-0.45
	c-0.84-0.1-1.27-0.34-1.51-0.69c-0.2-0.27-0.26-0.37-0.42-0.38c-0.17-0.01-0.29,0.07-0.38,0.37c-0.12,0.46-1.1,3.5-1.42,4.47
	c-0.03,0.07-0.01,0.19,0.08,0.22l0.5,0.22c0.09,0.03,0.17-0.04,0.24-0.15c0.64-0.8,1.77-2.16,2.3-2.51
	c1.01-0.29,2.41-0.22,3.16-0.17l0.82,0.05L129.61,26.41z M155.09,41.68c3.48,1.27,5.84,0.62,7.92-0.64c1.7-1.13,2.82-2.62,3.41-4.23
	c1.1-3.04,0.57-5.76-0.63-7.69c-1.32-2.13-2.92-3.03-4.75-3.7c-1.98-0.72-4.64-1.18-7.44,0.47c-2.44,1.44-3.56,3.4-4.05,4.75
	c-1.17,3.22-0.36,6.21,0.86,7.73C151.78,40.08,153.57,41.13,155.09,41.68z M155.64,40.71c-1.83-0.66-4.34-3.85-2.29-9.49
	c0.66-1.81,2.16-3.88,3.91-4.65c1.82-0.81,2.88-0.3,3.32-0.14c1.85,0.67,4.07,4.47,2.31,9.3C162.24,37.54,159.72,42.19,155.64,40.71
	z M180.22,49.24l-0.08-0.05c-0.05-0.4-0.62-5.86-0.68-6.37c-0.12-1.11-0.97-8.37-0.99-8.55c-0.04-0.28-0.15-0.46-0.41-0.62
	c-0.23-0.15-0.85-0.49-1.52-0.92c-1.03-0.66-1.65-1.08-2.03-1.35c-0.37-0.24-0.52-0.36-0.62-0.43c-0.1-0.06-0.14-0.04-0.2,0.04
	l-0.34,0.53c-0.04,0.06-0.07,0.15,0.03,0.22l0.48,0.34c0.98,0.65,0.98,2.21,0.23,3.38l-1.14,1.78c-1.87,2.92-4.05,5.98-4.31,6.35
	c-0.95,1.26-1.67,1.69-2.1,1.41l-0.69-0.45c-0.1-0.06-0.16-0.02-0.2,0.04l-0.33,0.52c-0.09,0.14-0.09,0.19-0.02,0.24
	c0.2,0.13,1.6,0.94,2.21,1.33c0.93,0.59,2.07,1.41,2.27,1.54c0.14,0.09,0.18,0.06,0.26-0.05l0.3-0.48c0.07-0.12,0.09-0.19-0.05-0.28
	l-0.49-0.31c-0.83-0.53-0.8-1.35-0.11-2.52c0.46-0.76,1.84-3.31,2.89-4.94l2.55-3.99l0.16,0.1c0.04,0.94,0.59,6.08,0.67,6.69
	c0.1,0.68,0.46,3.59,0.81,6.18c0.29,2.16,0.59,3.83,0.72,4.36c0.08,0.36,0.27,0.62,0.57,0.81c0.28,0.18,0.52-0.17,0.72-0.46
	l2.16-3.38c1.67-2.61,4.85-6.87,5.83-8.11c0.52-0.67,0.93-0.88,1.27-0.67l0.55,0.35c0.08,0.05,0.15-0.02,0.21-0.11l0.3-0.48
	c0.08-0.12,0.08-0.17-0.1-0.28c-0.22-0.14-0.73-0.38-1.91-1.14c-1.46-0.94-2.06-1.4-2.27-1.54c-0.16-0.1-0.21-0.08-0.27,0.02
	l-0.31,0.49c-0.08,0.12-0.09,0.19,0.01,0.25l0.63,0.41c0.45,0.29,0.75,0.87,0.55,1.44c-0.13,0.34-1.27,2.33-1.74,3.12
	c-0.59,1.02-1.2,1.99-2.32,3.75L180.22,49.24z M196.9,48.95l2.14,2.23c0.44,0.46,0.69,1.14,0.83,1.7c0.16,0.61,0.19,3.6,0.14,3.82
	c-0.03,0.13,0.03,0.23,0.13,0.26l0.4,0.13c0.13,0.03,0.16,0,0.21-0.12c0.1-0.23,1.8-3.07,1.96-3.37c0.03-0.07,0.03-0.13-0.05-0.21
	c-0.09-0.08-0.44-0.36-0.71-0.62l-5.89-5.75c-1.52-1.5-2.06-2.12-2.43-2.48c-0.1-0.1-0.18-0.05-0.23,0l-0.4,0.4
	c-0.12,0.12-0.15,0.18-0.08,0.25l0.65,0.64c0.45,0.44,0.51,0.72,0.05,1.33c-0.15,0.18-2.13,2.28-3.5,3.67l-5.5,5.61
	c-0.57,0.59-0.76,0.64-1.53-0.12l-0.5-0.49c-0.12-0.11-0.21-0.11-0.31-0.01l-0.34,0.35c-0.13,0.13-0.15,0.22-0.03,0.33
	c0.15,0.15,0.38,0.34,0.75,0.67c0.34,0.33,0.82,0.77,1.44,1.38c2.9,2.84,4.66,4.6,5.74,5.67c1.06,1.07,1.41,1.44,1.49,1.53
	c0.2,0.2,0.42,0.21,0.62,0.11l3.23-1.79c0.07-0.03,0.1-0.1,0.06-0.2l-0.12-0.45c-0.02-0.08-0.09-0.12-0.22-0.11
	c-0.73,0.07-2.69,0.19-3.46,0.12c-0.78-0.08-1.45-0.4-1.82-0.69c-0.38-0.31-1.1-0.98-1.39-1.27c-0.84-0.82-1.11-1.18-1.26-1.53
	c-0.12-0.31-0.01-0.8,0.85-1.67c0.3-0.3,1.81-2.01,2.69-2.91l0.99-1c0.74,0.72,1.22,1.27,1.61,1.77c0.29,0.38,0.47,0.99,0.34,1.49
	c-0.09,0.3-0.3,0.85-0.5,1.18c-0.08,0.15-0.08,0.22,0,0.27l0.48,0.31c0.1,0.06,0.18,0.12,0.27,0c0.31-0.38,1.03-1.25,1.77-2.01
	c0.57-0.59,1.43-1.45,1.76-1.69c0.12-0.08,0.06-0.17,0-0.27l-0.41-0.49c-0.08-0.08-0.17-0.1-0.28,0.02
	c-0.31,0.32-0.97,0.59-1.41,0.66c-0.55,0.05-0.93-0.02-1.28-0.24c-0.25-0.14-1.04-0.82-1.81-1.57L196.9,48.95z M198.79,76.29
	c2.03,3.1,4.3,3.99,6.73,4.23c2.04,0.12,3.83-0.41,5.26-1.35c2.71-1.78,3.9-4.27,4.1-6.54c0.21-2.5-0.52-4.17-1.59-5.8
	c-1.16-1.77-3.01-3.73-6.24-4.07c-2.82-0.31-4.89,0.59-6.08,1.38c-2.86,1.88-4.01,4.76-3.93,6.71
	C197.1,73.02,197.9,74.93,198.79,76.29z M199.82,75.84c-1.07-1.62-1.17-5.68,3.85-8.98c1.61-1.05,4.05-1.82,5.91-1.38
	c1.94,0.44,2.49,1.48,2.74,1.87c1.08,1.65,0.58,6.02-3.71,8.84C206.99,77.24,202.2,79.47,199.82,75.84z M214.55,97.84l-0.03-0.09
	c0.2-0.35,3.03-5.05,3.3-5.5c0.57-0.96,4.26-7.26,4.36-7.42c0.13-0.25,0.16-0.46,0.05-0.75c-0.1-0.26-0.39-0.91-0.66-1.66
	c-0.42-1.14-0.66-1.86-0.8-2.3c-0.16-0.42-0.2-0.6-0.24-0.71c-0.04-0.11-0.09-0.12-0.18-0.08l-0.59,0.22
	c-0.06,0.02-0.15,0.08-0.1,0.19l0.18,0.56c0.39,1.11-0.55,2.36-1.85,2.84l-1.98,0.73c-3.26,1.21-6.84,2.33-7.26,2.47
	c-1.52,0.44-2.35,0.34-2.53-0.14l-0.29-0.77c-0.04-0.11-0.12-0.11-0.18-0.09l-0.57,0.21c-0.16,0.06-0.19,0.09-0.16,0.18
	c0.08,0.22,0.71,1.71,0.96,2.4c0.38,1.03,0.8,2.38,0.89,2.6c0.06,0.16,0.11,0.16,0.24,0.11l0.53-0.19c0.13-0.05,0.19-0.1,0.13-0.25
	l-0.2-0.55c-0.34-0.92,0.17-1.56,1.43-2.08c0.83-0.33,3.46-1.53,5.29-2.21l4.44-1.64l0.07,0.17c-0.54,0.78-3.2,5.21-3.5,5.75
	c-0.33,0.6-1.79,3.14-3.07,5.42c-1.07,1.9-1.84,3.41-2.05,3.91c-0.15,0.33-0.16,0.66-0.03,0.99c0.12,0.31,0.52,0.18,0.85,0.06
	l3.76-1.39c2.91-1.08,8.01-2.56,9.54-2.96c0.82-0.23,1.27-0.15,1.41,0.23l0.23,0.62c0.03,0.09,0.13,0.08,0.24,0.04l0.53-0.19
	c0.13-0.05,0.17-0.09,0.09-0.29c-0.09-0.24-0.35-0.74-0.84-2.06c-0.6-1.63-0.8-2.36-0.89-2.6c-0.07-0.18-0.12-0.18-0.23-0.14
	l-0.55,0.2c-0.13,0.05-0.19,0.09-0.15,0.2l0.26,0.7c0.19,0.51,0.07,1.15-0.43,1.48c-0.31,0.19-2.42,1.1-3.27,1.44
	c-1.09,0.45-2.16,0.87-4.11,1.6L214.55,97.84z M222.08,108.98c-0.44,0.06-7.57,1.06-8.07,1.09c-0.42,0.01-0.74-0.23-0.81-0.69
	l-0.16-1.18c-0.02-0.14-0.09-0.15-0.26-0.13l-0.44,0.06c-0.19,0.02-0.27,0.06-0.25,0.25c0.05,0.33,0.25,1.29,0.6,3.75
	c0.36,2.58,0.4,3.34,0.43,3.57c0.03,0.21,0.1,0.22,0.22,0.2l0.53-0.07c0.16-0.02,0.23-0.06,0.2-0.27l-0.15-1.05
	c-0.08-0.56,0.24-0.79,0.82-0.92c0.34-0.07,6.85-0.99,7.17-1.03l6.39-0.9l0.11,0.77c0.08,0.53,0.27,2.62,0.01,3.24
	c-0.48,0.66-1.56,1.74-2.32,2.37c-0.15,0.12-0.21,0.17-0.18,0.26l0.26,0.46c0.03,0.07,0.13,0.1,0.22,0.06
	c1.2-0.36,4.02-1.21,4.52-1.35c0.27-0.09,0.36-0.17,0.34-0.33c-0.02-0.16-0.16-0.28-0.42-0.48c-0.32-0.24-0.73-1.11-0.82-1.62
	c-0.19-0.97-0.42-1.95-0.77-4.49l-0.19-1.35c-0.34-2.41-0.41-3.4-0.51-4.64c-0.07-0.84,0.08-1.31,0.37-1.62
	c0.23-0.24,0.31-0.33,0.29-0.49c-0.02-0.16-0.13-0.27-0.44-0.3c-0.48-0.02-3.66-0.36-4.67-0.48c-0.07-0.02-0.19,0.02-0.2,0.12
	l-0.12,0.54c-0.01,0.1,0.07,0.16,0.2,0.21c0.92,0.46,2.48,1.29,2.92,1.74c0.48,0.93,0.7,2.32,0.81,3.06l0.12,0.81L222.08,108.98z
	 M219.77,131.35c-0.86,0.23-3.91,0.97-4.77,1.13c-0.62,0.11-0.84-0.12-0.8-0.75l0.04-0.66c0.01-0.12-0.09-0.14-0.2-0.15l-0.45-0.03
	c-0.16-0.01-0.3,0.01-0.32,0.24c-0.03,0.47-0.01,1.29-0.12,3.24c-0.18,3-0.27,3.48-0.3,3.93c-0.01,0.19,0.15,0.22,0.29,0.23
	l0.45,0.02c0.12,0.01,0.21-0.01,0.22-0.15l0.05-0.8c0.02-0.35,0.34-0.95,1.13-1.3c0.65-0.29,5.09-1.56,6.95-1.99
	c1.52-0.36,6.88-1.88,8.38-2.23c0.26-0.06,0.41-0.1,0.41-0.23c0.01-0.12-0.08-0.19-0.19-0.32c-0.38-0.37-0.9-1.93-1.02-2.69
	c-0.04-0.19-0.12-0.24-0.2-0.25c-0.09-0.01-0.22,0.08-0.32,0.15c-0.27,0.15-0.56,0.02-0.79-0.07c-0.62-0.25-5.55-2.44-6.01-2.66
	c-2.02-0.89-5.99-2.79-6.46-3.15c-0.68-0.51-0.97-1.09-0.94-1.65l0.03-0.61c0.01-0.14-0.06-0.17-0.2-0.18l-0.45-0.02
	c-0.16-0.01-0.3,0-0.31,0.15c-0.02,0.33,0.02,0.84-0.08,2.55c-0.11,1.92-0.24,2.88-0.25,3.18c-0.01,0.19,0.05,0.21,0.24,0.23
	l0.52,0.03c0.09,0,0.19-0.01,0.2-0.25l0.05-0.82c0.04-0.7,0.62-0.88,1.13-0.85c0.75,0.04,3.89,1.38,4.37,1.59L219.77,131.35z
	 M220.98,126.58c0.57,0.22,5.98,2.56,6.28,2.69c0.21,0.08,0.3,0.16,0.29,0.3c-0.01,0.12-0.17,0.16-0.53,0.23
	c-0.59,0.13-5.59,1.23-6.31,1.4L220.98,126.58z"/>
<path fill="#CB2C30" stroke="#CB2C30" stroke-width="0.5152" d="M32.68,162.39c0.03,0.06,0.03,0.11-0.07,0.16
	c-0.45,0.24-1.01,0.73-1.44,1.36c-0.5,0.75-0.51,1.64-0.18,2.36c0.32,0.73,1.32,1.67,2.52,1.14c1.25-0.55,1.51-0.96,1.38-3.25
	c-0.04-0.52,0.02-1.71,0.34-2.77c0.24-0.73,0.94-1.32,1.81-1.71c0.92-0.41,1.64-0.46,2.73,0.15c0.81,0.45,1.28,0.93,1.69,1.85
	c0.49,1.1,0.57,1.77,0.59,2.15c0.01,0.18,0.09,0.27,0.23,0.31l0.28,0.11c0.09,0.03,0.15,0.09,0.19,0.18
	c0.05,0.11-0.1,0.21-0.19,0.27l-2.48,1.39c-0.06,0.03-0.09,0-0.12-0.03l-0.25-0.29c-0.06-0.06-0.07-0.15,0.02-0.24
	c0.37-0.36,0.84-0.88,1.16-1.64c0.26-0.56,0.27-1.11-0.03-1.79c-0.5-1.13-1.69-1.17-2.09-0.99c-0.56,0.25-1.01,0.47-1.22,1.01
	c-0.23,0.57-0.21,1.59-0.1,2.43c0.11,0.82-0.01,1.58-0.29,2.44c-0.27,0.82-0.83,1.36-1.88,1.83c-1.85,0.82-3.92,0.17-4.81-1.83
	c-0.6-1.36-0.7-2.17-0.55-2.99c0.04-0.23,0.05-0.34,0.02-0.42c-0.04-0.09-0.17-0.1-0.37-0.13c-0.21-0.02-0.25-0.09-0.3-0.19
	c-0.08-0.16-0.03-0.26,0.15-0.32l2.98-1.03c0.11-0.03,0.13,0.02,0.16,0.07L32.68,162.39z M37.97,173.16
	c0.67-0.37,1.36-0.75,1.97-1.04l0.93,1.7c0.05,0.09,0.12,0.09,0.19,0.07l0.7-0.2c0.07-0.01,0.12-0.09,0.08-0.18l-1.01-1.84
	l1.57-0.78c0.12-0.06,0.19-0.18,0.12-0.31c-0.04-0.07-0.12-0.16-0.3-0.2c-0.9-0.2-2.66-0.83-3.14-1.18
	c-0.24-0.17-0.39-0.2-0.54-0.12c-0.14,0.08-0.14,0.21-0.07,0.34l0.44,0.8l-1.92,1.03c-0.55,0.3-1.67,0.88-2.18,1.16
	c-0.66,0.37-1.01,1.36-0.46,2.35c0.62,1.13,1.38,1.56,1.69,1.71c0.08,0.03,0.17,0.04,0.22-0.04l0.16-0.22
	c0.06-0.09,0.04-0.13-0.02-0.16c-0.26-0.16-0.42-0.35-0.59-0.66c-0.19-0.35-0.18-0.94,1.01-1.59L37.97,173.16z M42.9,179.88
	c-0.49-0.19-0.87-0.44-2.1-1.17c-1.03-0.6-1.86-0.47-2.46-0.07c-0.74,0.5-0.98,1.27-0.66,1.76c0.27,0.4,0.5,0.7,0.78,0.91
	c0.58,0.41,0.96,0.57,1.5,0.7l0.05,0.07c-0.48,0.69-0.33,1.33,0.03,1.87c0.57,0.85,1.49,0.83,1.87,0.77
	c0.16-0.03,0.17-0.1,0.16-0.17l-0.02-0.27c0-0.06-0.04-0.09-0.16-0.09c-0.13,0.01-0.38-0.04-0.51-0.23
	c-0.17-0.26,0.02-0.45,0.73-0.94l2.72-1.85c0.49-0.33,0.84-0.68,0.91-1.16c0.07-0.46,0.05-0.79-0.54-1.67
	c-0.74-1.12-1.87-1.73-2.78-1.96c-0.44-0.12-0.92,0.05-1.22,0.26c-0.31,0.2-0.31,0.6-0.1,0.92c0.37,0.55,0.91,0.69,1.38,0.37
	c0.44-0.29,0.56-0.61,0.84-0.5c0.33,0.13,0.54,0.33,0.71,0.58c0.15,0.22,0.25,0.47,0.22,0.69c-0.05,0.29-0.34,0.53-0.62,0.71
	L42.9,179.88z M40.4,181.57c-0.12,0.08-0.65,0.03-0.93-0.32c-0.19-0.31-0.12-0.77,0.51-1.2c0.95-0.63,1.53-0.21,2.37,0.21
	L40.4,181.57z M47.37,187.09c0.6-0.48,1.22-0.97,1.77-1.37l1.2,1.52c0.06,0.08,0.13,0.07,0.2,0.04l0.66-0.31
	c0.08-0.02,0.11-0.1,0.05-0.18l-1.3-1.64l1.41-1.04c0.1-0.08,0.15-0.2,0.06-0.32c-0.05-0.06-0.15-0.13-0.32-0.14
	c-0.93-0.05-2.76-0.36-3.3-0.64c-0.27-0.12-0.42-0.13-0.55-0.02c-0.13,0.1-0.11,0.23-0.02,0.35l0.57,0.71l-1.72,1.35
	c-0.49,0.39-1.5,1.14-1.95,1.51c-0.59,0.47-0.77,1.51-0.06,2.39c0.8,1.01,1.63,1.3,1.95,1.41c0.08,0.02,0.17,0.01,0.21-0.09
	l0.12-0.24c0.05-0.1,0.02-0.14-0.04-0.16c-0.28-0.11-0.48-0.27-0.69-0.55c-0.25-0.31-0.33-0.89,0.73-1.74L47.37,187.09z
	 M54.41,194.44c0.25,0.27,0.36,0.36,0.52,0.21c0.2-0.18,1.96-2.04,0.13-3.99c-0.87-0.93-1.91-1.34-2.95-1.17
	c-1.3,0.2-1.95,0.8-2.28,1.12c-0.93,0.89-1.21,1.54-1.3,2.77c-0.06,0.8,0.41,1.57,1.12,2.34c1.07,1.13,2.63,1.14,3.28,0.94
	c0.3-0.09,0.33-0.18,0.31-0.25l-0.09-0.3c-0.01-0.08-0.06-0.12-0.15-0.09c-0.61,0.12-1.34-0.1-1.9-0.69
	c-0.82-0.88-0.87-2.17,0.38-3.35l0.32-0.3L54.41,194.44z M52.29,191.26c0.93-0.71,1.66-0.83,2.18-0.26
	c0.35,0.38,0.04,1.08-0.49,1.58c-0.19,0.17-0.36,0.1-0.6-0.16L52.29,191.26z M61.96,198.53c-1.33,1.71-1.95,2.63-2.16,3.36
	c-0.34,1.08-0.23,2.14,0.18,2.91c0.37,0.66,1.13,1.4,1.75,1.87c0.85,0.66,1.97,1.05,2.94,0.98c1.15-0.07,2.14-0.62,3.05-1.64
	c0.43-0.48,2.23-2.74,2.37-2.93c0.14-0.18,1.54-1.99,1.7-2.15c0.13-0.11,0.45-0.45,0.95-0.06l0.41,0.31
	c0.07,0.05,0.12,0.01,0.18-0.07l0.22-0.29c0.05-0.07,0.08-0.13-0.04-0.22c-0.12-0.09-0.57-0.37-1.27-0.92
	c-0.89-0.69-1.46-1.19-1.59-1.3c-0.08-0.06-0.11-0.05-0.16,0.02l-0.26,0.34c-0.05,0.06-0.07,0.12,0.01,0.18l0.42,0.32
	c0.22,0.17,0.25,0.57,0.04,0.95c-0.18,0.34-1.16,1.87-2.02,2.98l-1.56,2.01c-0.73,0.94-1.59,1.43-2.48,1.49
	c-0.61,0.05-1.51-0.24-1.99-0.62c-0.59-0.45-1.04-1.14-1.06-2c-0.01-0.59,0.33-1.27,0.79-1.88c0.31-0.43,1.54-2.13,2.08-2.82
	l0.67-0.86c0.51-0.66,1.22-1.55,1.34-1.68c0.23-0.24,0.64-0.32,1.09,0.02l0.45,0.35c0.09,0.07,0.12,0.05,0.17-0.01l0.26-0.34
	c0.06-0.08,0.07-0.12-0.03-0.2c-0.15-0.12-0.8-0.56-1.95-1.45c-1.37-1.06-1.98-1.6-2.11-1.7c-0.11-0.08-0.14-0.07-0.2,0.01
	l-0.24,0.31c-0.07,0.09-0.08,0.13,0,0.19l0.62,0.48c0.27,0.21,0.2,0.49-0.15,0.95L61.96,198.53z M74.21,206.56
	c0.03-0.12-0.02-0.24-0.1-0.29c-0.11-0.07-0.25-0.07-0.38-0.1l-2.31-0.27c-0.09-0.02-0.17-0.01-0.21,0.06l-0.08,0.13
	c-0.03,0.05-0.05,0.12,0.01,0.22l0.09,0.13c0.23,0.35,0.33,0.74,0.07,1.17l-1.89,3.15c-0.14,0.24-0.41,0.14-0.57,0.04l-0.21-0.12
	c-0.11-0.07-0.16-0.05-0.22,0.04L68.24,211c-0.05,0.08-0.05,0.14,0.02,0.19c0.09,0.05,0.56,0.28,1.57,0.88
	c0.93,0.56,1.29,0.84,1.39,0.89c0.07,0.04,0.12,0.02,0.18-0.06l0.16-0.27c0.06-0.1,0.05-0.16-0.06-0.23l-0.18-0.11
	c-0.13-0.08-0.1-0.35,0.05-0.61l1.77-2.89c0.35-0.58,0.7-0.9,0.94-0.92c0.41-0.05,0.64-0.01,0.9,0.15c0.24,0.14,0.42,0.29,0.54,0.67
	c0.14,0.45-0.04,0.84-0.37,1.38l-0.91,1.52c-0.39,0.65-0.7,1.09-0.97,1.43c-0.18,0.23-0.35,0.23-0.45,0.17l-0.16-0.09
	c-0.14-0.09-0.2-0.09-0.26,0.02l-0.16,0.25c-0.07,0.11-0.07,0.18,0.02,0.22c0.1,0.06,0.58,0.29,1.52,0.85
	c1.13,0.68,1.55,0.99,1.64,1.05c0.09,0.05,0.15,0.01,0.21-0.09l0.15-0.25c0.05-0.09,0.05-0.15-0.08-0.22l-0.38-0.23
	c-0.13-0.07-0.31-0.28-0.05-0.7c0.33-0.48,0.76-1.13,1.04-1.61l0.91-1.51c0.43-0.71,0.6-1.09,0.33-2c-0.16-0.56-0.67-0.94-1.22-1.27
	c-0.47-0.28-0.84-0.37-1.25-0.39c-0.35-0.02-0.72,0.01-0.99,0.1L74,207.26L74.21,206.56z M82.3,218.65l0.13-0.28
	c0.04-0.09,0.03-0.15-0.08-0.2l-0.54-0.26c-0.17-0.08-0.19-0.22-0.09-0.52c0.06-0.18,0.32-0.71,0.6-1.29l0.76-1.59
	c0.63-1.31,1.08-2.25,1.23-2.49c0.06-0.1,0.05-0.19-0.06-0.25c-0.11-0.05-0.25-0.09-0.45-0.1l-2.57-0.35c-0.15-0.02-0.2,0-0.22,0.04
	l-0.08,0.17c-0.05,0.09-0.06,0.15,0.08,0.29c0.52,0.52,0.46,0.86,0.26,1.28l-0.97,2.1c-0.2,0.41-0.42,0.87-0.67,1.31
	c-0.12,0.23-0.26,0.24-0.42,0.16l-0.55-0.26c-0.11-0.05-0.16-0.04-0.2,0.05l-0.15,0.3c-0.05,0.12-0.02,0.17,0.05,0.21
	c0.16,0.08,0.77,0.31,1.63,0.73c1.3,0.62,1.96,0.99,2.08,1.05C82.2,218.79,82.24,218.76,82.3,218.65z M85.36,209.59
	c0.2-0.41,0.06-1.03-0.64-1.37c-0.63-0.3-1.33-0.1-1.56,0.37c-0.28,0.58-0.02,1.2,0.58,1.47C84.55,210.44,85.13,210.07,85.36,209.59
	z M86.37,213.52c-0.03,0.09-0.04,0.16,0.04,0.19l0.31,0.12c0.28,0.11,0.36,0.3,0.46,0.83c0.04,0.23,0.1,2.23,0.11,2.41
	c0,0.18,0.2,3.42,0.27,3.71c0.05,0.28,0.1,0.48,0.3,0.56c0.21,0.08,0.36-0.02,0.52-0.16c0.16-0.15,2.38-2.31,2.72-2.64
	c0.64-0.61,1.84-1.72,2.24-1.92c0.26-0.13,0.59-0.04,0.8,0.04l0.26,0.1c0.08,0.03,0.09-0.02,0.13-0.13l0.11-0.29
	c0.05-0.12,0.04-0.14-0.09-0.19c-0.14-0.05-0.52-0.15-1.33-0.45c-0.94-0.36-1.26-0.54-1.48-0.62c-0.06-0.02-0.11,0-0.14,0.09
	l-0.12,0.31c-0.03,0.08-0.04,0.16,0.01,0.18l0.27,0.11c0.28,0.11,0.41,0.51,0.12,0.84c-0.63,0.73-2.16,2.34-2.39,2.56l-0.09-0.04
	l-0.02-1.92c-0.01-0.32,0-1.73,0.11-2.01c0.06-0.17,0.3-0.19,0.5-0.11l0.2,0.08c0.09,0.04,0.13-0.02,0.17-0.11l0.12-0.31
	c0.04-0.09,0.02-0.14-0.11-0.18c-0.17-0.07-0.59-0.17-1.64-0.57c-1.6-0.62-1.85-0.76-2.02-0.83c-0.14-0.05-0.18-0.05-0.22,0.06
	L86.37,213.52z M101.22,220.99c0.35,0.09,0.5,0.12,0.56-0.09c0.07-0.25,0.6-2.77-1.99-3.47c-1.23-0.34-2.33-0.14-3.13,0.55
	c-1.01,0.86-1.24,1.7-1.36,2.15c-0.32,1.25-0.22,1.94,0.35,3.04c0.37,0.72,1.17,1.13,2.19,1.41c1.5,0.41,2.84-0.41,3.29-0.92
	c0.21-0.23,0.19-0.32,0.13-0.37l-0.23-0.22c-0.05-0.06-0.12-0.07-0.17,0c-0.46,0.42-1.19,0.62-1.98,0.4
	c-1.16-0.32-1.88-1.39-1.43-3.05l0.12-0.43L101.22,220.99z M97.75,219.39c0.42-1.09,0.98-1.57,1.73-1.36c0.49,0.13,0.59,0.9,0.4,1.6
	c-0.06,0.24-0.25,0.27-0.6,0.18L97.75,219.39z M107.51,222.01c0.04-0.21,0.16-0.51,0.45-0.91c0.13-0.2,0.31-0.25,0.48-0.22
	c0.13,0.03,0.27,0.08,0.38,0.19c0.13,0.13,0.33,0.22,0.56,0.26c0.54,0.09,1.13-0.3,1.21-0.74c0.1-0.57-0.2-1.02-0.69-1.1
	c-0.71-0.13-1.52,0.23-2.22,1.21l-0.11-0.02l0.09-1.3c0-0.1-0.05-0.21-0.16-0.23c-0.09-0.02-0.17,0-0.27,0.02l-2.46,0.58
	c-0.1,0.01-0.14,0.04-0.15,0.1l-0.03,0.15c-0.01,0.06,0.02,0.1,0.11,0.17l0.24,0.21c0.44,0.37,0.55,0.69,0.42,1.39l-0.25,1.35
	c-0.15,0.81-0.25,1.38-0.37,1.84c-0.09,0.28-0.25,0.36-0.49,0.31l-0.47-0.09c-0.15-0.02-0.19,0-0.21,0.11l-0.05,0.31
	c-0.03,0.13,0,0.16,0.06,0.18c0.1,0.02,0.79,0.09,2.04,0.32c1.47,0.27,2.2,0.45,2.3,0.47c0.07,0.01,0.09-0.04,0.11-0.14l0.06-0.32
	c0.02-0.1,0.01-0.15-0.09-0.17l-0.67-0.12c-0.34-0.06-0.48-0.25-0.38-0.76L107.51,222.01z M117.38,221.11c0-0.12-0.03-0.2-0.27-0.34
	c-0.28-0.18-0.8-0.43-1.69-0.52c-0.69-0.07-1.16,0-1.87,0.41c-0.67,0.4-0.97,1.02-1.04,1.8c-0.12,1.18,0.66,1.83,1.8,2.29
	c1.04,0.44,1.49,0.7,1.43,1.35c-0.05,0.58-0.46,0.97-1.07,0.91c-0.75-0.08-1.09-0.52-1.35-0.98l-0.56-1.04
	c-0.02-0.07-0.05-0.09-0.1-0.08l-0.3,0.05c-0.07,0.01-0.12,0.04-0.13,0.12l0.06,1.6c0,0.1,0.02,0.17,0.08,0.23
	c0.18,0.17,0.96,0.58,1.88,0.66c1.79,0.18,3.05-0.76,3.19-2.23c0.06-0.58,0-0.98-0.39-1.45c-0.45-0.58-0.83-0.73-1.61-1.03
	c-1.19-0.45-1.37-0.63-1.34-1.21c0.06-0.56,0.56-0.84,1.06-0.79c0.49,0.05,0.78,0.34,0.97,0.58l0.82,1.08
	c0.06,0.07,0.11,0.09,0.16,0.06l0.31-0.1c0.07-0.02,0.09-0.05,0.08-0.14L117.38,221.11z M124.13,227.79l0.01-0.32
	c0-0.09-0.03-0.15-0.16-0.15l-0.59-0.02c-0.18,0-0.26-0.13-0.29-0.44c-0.01-0.18,0-0.78,0.02-1.42l0.05-1.77
	c0.04-1.45,0.07-2.5,0.11-2.78c0.02-0.11-0.03-0.19-0.16-0.2c-0.12-0.01-0.27,0.02-0.45,0.09l-2.49,0.73
	c-0.15,0.05-0.19,0.08-0.19,0.12l0,0.18c0,0.1,0.01,0.17,0.19,0.24c0.69,0.27,0.78,0.6,0.77,1.06l-0.03,2.31
	c-0.02,0.46-0.03,0.98-0.07,1.47c-0.03,0.27-0.15,0.33-0.32,0.32l-0.62-0.02c-0.11-0.01-0.17,0.03-0.17,0.12l-0.01,0.33
	c-0.01,0.13,0.04,0.16,0.12,0.17c0.18,0,0.83-0.03,1.79,0c1.44,0.03,2.2,0.11,2.33,0.11C124.1,227.95,124.13,227.91,124.13,227.79z
	 M123.23,218.27c0.02-0.46-0.37-0.97-1.15-0.99c-0.7-0.02-1.25,0.45-1.27,0.98c-0.02,0.64,0.47,1.1,1.12,1.1
	C122.84,219.37,123.22,218.8,123.23,218.27z M129.09,224.08c-0.02-0.76-0.05-1.55-0.04-2.23l1.93-0.07c0.1,0,0.13-0.07,0.14-0.13
	l0.14-0.72c0.03-0.06-0.02-0.15-0.12-0.14l-2.1,0.08l0.01-1.75c-0.01-0.14-0.07-0.25-0.22-0.24c-0.08,0-0.2,0.04-0.31,0.17
	c-0.59,0.72-1.93,2-2.47,2.27c-0.26,0.14-0.35,0.26-0.35,0.42c0,0.16,0.12,0.23,0.27,0.22l0.91-0.03l0.06,2.18
	c0.02,0.62,0.03,1.88,0.05,2.46c0.03,0.76,0.77,1.51,1.89,1.47c1.29-0.05,2.02-0.54,2.29-0.74c0.06-0.05,0.11-0.14,0.06-0.22
	l-0.13-0.24c-0.05-0.09-0.1-0.09-0.15-0.06c-0.26,0.16-0.5,0.22-0.85,0.23c-0.4,0.01-0.92-0.27-0.97-1.62L129.09,224.08z
	 M135.63,231.88c0.91-0.12,1.2-0.8,1.41-1.28c0.24-0.56,0.75-2.18,1.36-4.07c0.91-2.85,1.74-5.44,1.99-5.87
	c0.16-0.29,0.38-0.38,0.56-0.41l0.18-0.03c0.09-0.01,0.08-0.06,0.06-0.16l-0.04-0.31c-0.02-0.1-0.02-0.16-0.12-0.15
	c-0.18,0.02-0.55,0.12-1.24,0.21c-0.92,0.12-1.27,0.11-1.48,0.14c-0.09,0.01-0.09,0.06-0.09,0.15l0.05,0.36
	c0.01,0.08,0.03,0.13,0.13,0.12l0.26-0.04c0.33-0.04,0.57,0.14,0.49,0.61c-0.06,0.32-0.66,2.72-0.94,3.7l-0.09,0.01
	c-0.16-0.35-1.48-3.39-1.57-3.67c-0.06-0.26,0.07-0.39,0.25-0.41l0.23-0.02c0.08-0.01,0.09-0.06,0.08-0.14l-0.05-0.35
	c-0.01-0.1-0.03-0.15-0.17-0.13c-0.18,0.02-0.68,0.14-1.68,0.27c-1.43,0.18-1.83,0.18-1.98,0.2c-0.11,0.02-0.12,0.06-0.11,0.13
	l0.04,0.36c0.01,0.1,0.03,0.14,0.15,0.13l0.26-0.03c0.23-0.03,0.45,0.24,0.66,0.63c0.15,0.25,2.85,5.11,3.05,5.66
	c-0.12,0.6-0.75,2.5-0.9,2.63c-0.12,0.1-0.32,0.11-0.53,0c-0.24-0.1-0.48-0.12-0.71-0.09c-0.41,0.05-0.76,0.5-0.69,1.04
	C134.57,231.67,135.06,231.96,135.63,231.88z M151.88,224.53c1.09-0.3,1.93-0.87,2.48-1.87c0.44-0.84,0.59-1.84,0.34-2.77
	c-0.27-0.97-0.82-1.75-1.79-2.24c-0.9-0.48-1.74-0.61-2.84-0.31c-0.75,0.21-1.52,0.6-2.16,1.46c-0.77,1.01-0.84,2.3-0.65,3.02
	c0.27,1,0.74,1.78,1.53,2.29C149.86,224.82,150.72,224.85,151.88,224.53z M151.79,223.84c-0.59,0.16-0.91-0.02-1.24-0.4
	c-0.51-0.6-0.75-1.19-1-2.11c-0.35-1.29-0.33-2.04-0.15-2.62c0.12-0.37,0.35-0.56,0.75-0.66c0.7-0.19,1.59,0.54,2.09,2.39
	C152.72,222.2,152.67,223.6,151.79,223.84z M161.01,214.87c0.12-0.04,0.18-0.08,0.17-0.15l-0.14-0.62
	c-0.01-0.07-0.06-0.16-0.16-0.11l-1.8,0.66l-0.24-0.65c-0.53-1.43-1.05-2.49-0.93-3.02c0.1-0.5,0.28-0.67,0.59-0.79
	c0.15-0.05,0.43,0.02,0.73,0.26c0.38,0.31,0.76,0.39,1.26,0.2c0.36-0.13,0.75-0.61,0.57-1.09c-0.27-0.71-1.09-0.83-2-0.49
	c-0.96,0.36-1.68,0.96-2.23,2.04c-0.51,1.04-0.65,2.23-0.05,3.86l0.17,0.46l-0.82,0.3c-0.12,0.05-0.16,0.08-0.15,0.18l0.13,0.57
	c0.04,0.14,0.08,0.16,0.15,0.13l1-0.37l1.76,4.62c0.12,0.33,0.07,0.56-0.23,0.67l-0.51,0.19c-0.12,0.05-0.14,0.09-0.11,0.16
	l0.13,0.34c0.04,0.11,0.08,0.13,0.17,0.09c0.12-0.05,0.9-0.38,1.91-0.76c1.5-0.55,2.09-0.72,2.19-0.75c0.08-0.03,0.09-0.11,0.05-0.2
	l-0.12-0.31c-0.03-0.09-0.08-0.11-0.21-0.06l-0.56,0.2c-0.25,0.09-0.48,0.02-0.63-0.31c-0.25-0.59-0.94-2.58-1.21-3.32l-0.5-1.35
	L161.01,214.87z M177.11,209.88l-0.06,0.03c-0.26-0.1-3.84-1.56-4.19-1.7c-0.73-0.29-5.52-2.17-5.64-2.22
	c-0.19-0.07-0.34-0.06-0.52,0.05c-0.17,0.09-0.59,0.37-1.08,0.64c-0.75,0.42-1.22,0.66-1.52,0.81c-0.27,0.15-0.4,0.21-0.47,0.24
	c-0.07,0.04-0.07,0.08-0.04,0.14l0.22,0.39c0.02,0.05,0.07,0.09,0.14,0.05l0.37-0.19c0.73-0.39,1.7,0.12,2.18,0.98l0.73,1.3
	c1.19,2.13,2.37,4.51,2.51,4.79c0.47,1,0.5,1.6,0.18,1.77l-0.5,0.28c-0.07,0.04-0.06,0.09-0.04,0.14l0.21,0.37
	c0.05,0.1,0.09,0.12,0.14,0.09c0.14-0.08,1.12-0.69,1.56-0.93c0.68-0.38,1.57-0.82,1.71-0.91c0.1-0.05,0.1-0.09,0.05-0.18
	l-0.19-0.35c-0.05-0.09-0.09-0.12-0.19-0.06l-0.36,0.2c-0.61,0.34-1.11,0.05-1.61-0.77c-0.32-0.54-1.44-2.24-2.11-3.44l-1.63-2.92
	l0.12-0.06c0.6,0.29,3.98,1.66,4.38,1.81c0.45,0.16,2.38,0.9,4.11,1.55c1.44,0.54,2.57,0.91,2.95,1c0.25,0.07,0.48,0.04,0.69-0.09
	c0.2-0.11,0.07-0.38-0.05-0.6l-1.38-2.47c-1.06-1.9-2.66-5.29-3.1-6.31c-0.24-0.55-0.24-0.87,0.01-1.01l0.4-0.23
	c0.05-0.03,0.04-0.1,0-0.17l-0.19-0.34c-0.05-0.09-0.09-0.11-0.21-0.04c-0.16,0.09-0.48,0.32-1.35,0.81
	c-1.07,0.6-1.55,0.81-1.71,0.9c-0.12,0.06-0.11,0.1-0.07,0.17l0.2,0.36c0.05,0.09,0.09,0.12,0.16,0.08l0.46-0.26
	c0.33-0.18,0.79-0.18,1.08,0.13c0.17,0.19,1.03,1.57,1.36,2.12c0.43,0.7,0.84,1.4,1.56,2.69L177.11,209.88z M184.26,203.96
	c0.3-0.21,0.41-0.31,0.28-0.49c-0.15-0.21-1.76-2.22-3.94-0.66c-1.04,0.74-1.58,1.71-1.56,2.77c0.02,1.32,0.54,2.03,0.8,2.41
	c0.77,1.05,1.37,1.41,2.58,1.66c0.79,0.17,1.61-0.19,2.47-0.8c1.27-0.9,1.48-2.45,1.37-3.12c-0.04-0.31-0.13-0.35-0.2-0.34
	l-0.32,0.04c-0.08,0-0.13,0.05-0.11,0.14c0.04,0.62-0.28,1.31-0.94,1.78c-0.98,0.7-2.27,0.58-3.26-0.82l-0.26-0.36L184.26,203.96z
	 M180.83,205.63c-0.58-1.01-0.6-1.75,0.04-2.2c0.41-0.3,1.07,0.11,1.49,0.7c0.14,0.2,0.05,0.37-0.24,0.58L180.83,205.63z
	 M183.93,201.38c0.06,0.07,0.11,0.1,0.18,0.03l0.15-0.13c0.15-0.13,0.41-0.2,0.73-0.04l5.65,2.81c0.2,0.09,0.34,0.14,0.47,0.03
	c0.12-0.11,0.18-0.27,0.12-0.46l-1.5-4.51l0.08-0.07l4.06,2.09c0.27,0.14,0.4,0.18,0.53,0.06c0.1-0.09,0.2-0.22,0.14-0.41
	c-0.18-0.61-1.98-5.93-2.07-6.22c-0.08-0.27,0.08-0.54,0.28-0.71l0.12-0.11c0.06-0.05,0.05-0.11,0-0.18l-0.23-0.26
	c-0.06-0.07-0.12-0.09-0.18-0.03c-0.15,0.13-0.34,0.37-0.88,0.83c-0.69,0.61-1.1,0.9-1.17,0.97c-0.05,0.04-0.06,0.1-0.01,0.16
	l0.25,0.28c0.05,0.06,0.1,0.09,0.16,0.03l0.17-0.15c0.34-0.29,0.74-0.18,1.07,0.67l0.99,2.48l-0.05,0.04l-3.03-1.68
	c-0.18-0.1-0.18-0.33-0.08-0.41l0.17-0.15c0.06-0.05,0.02-0.13-0.03-0.19l-0.24-0.27c-0.04-0.05-0.09-0.05-0.18,0.02
	c-0.09,0.09-0.34,0.37-1.06,1c-0.78,0.69-1.21,1-1.31,1.08c-0.08,0.07-0.09,0.12-0.02,0.2l0.24,0.27c0.05,0.06,0.11,0.08,0.19,0.01
	l0.09-0.08c0.11-0.1,0.26-0.2,0.42-0.17c0.27,0.05,0.66,0.41,0.75,0.64l0.95,2.6l-0.08,0.07l-3.1-1.84
	c-0.2-0.13-0.25-0.29-0.14-0.38l0.16-0.14c0.09-0.07,0.06-0.12,0.01-0.19l-0.24-0.27c-0.06-0.07-0.11-0.08-0.19-0.01
	c-0.19,0.16-0.45,0.46-1.08,1.01c-1.05,0.93-1.34,1.11-1.51,1.26c-0.06,0.05-0.04,0.1,0.01,0.16L183.93,201.38z M201.75,185.75
	c-0.56-1.33-2.23-6-2.3-6.33c-0.07-0.38,0.16-0.83,0.28-0.98l0.19-0.23c0.08-0.09,0.05-0.13-0.03-0.2l-0.31-0.25
	c-0.08-0.06-0.11-0.07-0.19,0.02c-0.09,0.12-0.28,0.43-1,1.32c-0.77,0.95-1.24,1.44-1.34,1.58c-0.07,0.07-0.05,0.11,0,0.15
	l0.33,0.27c0.08,0.06,0.13,0.08,0.19,0.01l0.28-0.35c0.22-0.27,0.61-0.31,0.83-0.14c0.4,0.32,1.86,4.06,2.26,5.02
	c-1.03-0.26-5.21-1.11-5.44-1.3c-0.2-0.17-0.23-0.4-0.08-0.58l0.23-0.3c0.07-0.08,0.02-0.13-0.04-0.18l-0.32-0.26
	c-0.06-0.05-0.1-0.06-0.16,0.02c-0.1,0.13-0.44,0.62-1.51,1.95c-0.93,1.14-1.45,1.72-1.55,1.83c-0.06,0.08-0.04,0.11,0.01,0.15
	l0.36,0.29c0.05,0.04,0.1,0.06,0.16-0.02l0.16-0.19c0.17-0.21,0.52-0.43,0.84-0.43c0.7,0.03,6.12,1.02,6.68,1.13l0.55,0.45
	c1.19,0.97,2.19,1.82,2.36,1.98c0.16,0.15,0.2,0.35-0.07,0.69l-0.36,0.45c-0.07,0.08-0.04,0.12,0.02,0.16l0.3,0.25
	c0.09,0.07,0.15,0.08,0.19,0.03c0.12-0.14,0.4-0.57,1.48-1.91c0.98-1.21,1.42-1.68,1.55-1.83c0.07-0.09,0.03-0.12-0.04-0.18
	l-0.32-0.26c-0.05-0.04-0.09-0.07-0.16,0.02l-0.3,0.37c-0.16,0.2-0.36,0.37-0.8,0.07c-0.13-0.08-0.99-0.72-1.49-1.12L201.75,185.75z
	 M210.79,182.04c0.62-0.94,0.88-1.92,0.63-3.04c-0.22-0.92-0.77-1.78-1.56-2.31c-0.84-0.56-1.77-0.78-2.82-0.5
	c-0.99,0.23-1.71,0.69-2.34,1.64c-0.43,0.65-0.75,1.45-0.66,2.52c0.09,1.27,0.88,2.29,1.5,2.7c0.87,0.58,1.74,0.86,2.66,0.72
	C209.46,183.6,210.12,183.05,210.79,182.04z M210.27,181.58c-0.34,0.51-0.71,0.58-1.2,0.52c-0.77-0.12-1.34-0.4-2.14-0.93
	c-1.11-0.74-1.59-1.31-1.83-1.87c-0.16-0.36-0.11-0.65,0.12-0.99c0.4-0.61,1.55-0.64,3.15,0.43
	C209.89,179.73,210.77,180.82,210.27,181.58z M211.94,171.17c-0.19-0.1-0.44-0.31-0.73-0.71c-0.14-0.19-0.13-0.38-0.05-0.52
	c0.06-0.12,0.16-0.23,0.3-0.31c0.16-0.09,0.3-0.25,0.41-0.45c0.26-0.48,0.06-1.17-0.33-1.38c-0.51-0.27-1.03-0.12-1.26,0.32
	c-0.34,0.64-0.25,1.52,0.47,2.48l-0.06,0.1l-1.2-0.48c-0.09-0.03-0.21-0.02-0.27,0.08c-0.05,0.09-0.05,0.16-0.07,0.26l-0.21,2.52
	c-0.02,0.1,0,0.15,0.05,0.18l0.13,0.07c0.05,0.03,0.1,0.02,0.19-0.05l0.28-0.17c0.48-0.3,0.83-0.31,1.45,0.03l1.21,0.65
	c0.73,0.39,1.24,0.66,1.63,0.91c0.25,0.17,0.26,0.35,0.15,0.57l-0.23,0.42c-0.07,0.13-0.05,0.17,0.05,0.23l0.27,0.15
	c0.12,0.06,0.16,0.05,0.2-0.01c0.04-0.09,0.33-0.72,0.93-1.84c0.71-1.31,1.11-1.96,1.16-2.04c0.03-0.06-0.01-0.1-0.09-0.15
	l-0.29-0.15c-0.09-0.05-0.13-0.06-0.18,0.03l-0.32,0.59c-0.17,0.31-0.39,0.37-0.84,0.13L211.94,171.17z M217.63,167.42
	c0.2,0.08,0.31,0.29,0.22,0.49l-0.12,0.29c-0.04,0.11-0.03,0.16,0.07,0.21l0.29,0.12c0.09,0.04,0.16,0.03,0.19-0.01
	c0.05-0.11,0.22-0.66,0.67-1.73c0.41-0.98,0.67-1.46,0.71-1.55c0.04-0.09,0-0.14-0.09-0.18l-0.32-0.14
	c-0.09-0.04-0.14-0.02-0.18,0.09l-0.12,0.29c-0.06,0.15-0.23,0.24-0.52,0.12l-2.27-0.96c0.04-0.09,0.12-0.2,0.33-0.26
	c0.76-0.2,2.86-0.71,3.01-0.64c0.11,0.04,0.17,0.11,0.12,0.23l-0.05,0.11c-0.02,0.06,0.01,0.11,0.08,0.14l0.25,0.1
	c0.13,0.06,0.2,0.05,0.23-0.03c0.05-0.12,0.28-0.78,0.66-1.68c0.53-1.25,0.76-1.66,0.8-1.78c0.05-0.11,0.01-0.16-0.08-0.19
	l-0.3-0.13c-0.11-0.04-0.15-0.02-0.19,0.07c-0.07,0.16-0.28,0.54-0.57,0.71c-0.52,0.3-3.58,1.16-4.49,1.44
	c-0.18-0.46-0.71-2.05-0.73-2.61c-0.01-0.45,0.03-0.79,0.11-0.98l0.08-0.18c0.03-0.06,0.01-0.1-0.08-0.14l-0.32-0.13
	c-0.09-0.04-0.15-0.03-0.18,0.03c-0.04,0.11-0.16,0.51-0.55,1.42c-0.42,0.99-0.7,1.52-0.73,1.61c-0.04,0.08,0,0.13,0.07,0.16
	l0.32,0.13c0.09,0.04,0.15,0.05,0.19-0.06c0.06-0.15,0.24-0.31,0.42-0.23c0.23,0.1,0.73,1.15,1.05,2.05
	c0.09,0.25,0.09,0.43,0.02,0.6l-2.22-0.96c-2.03-0.88-4.27-1.83-4.98-2.2c-0.17-0.09-0.26-0.09-0.31,0.03s-0.07,0.33-0.05,0.68
	c-0.03,0.41-0.14,1.61-0.34,2.46c-0.03,0.16,0.01,0.24,0.07,0.27l0.27,0.11c0.05,0.02,0.13-0.02,0.24-0.15
	c0.55-0.66,0.94-0.57,1.45-0.36L217.63,167.42z"/>
<path stroke="#000000" stroke-width="0.5152" d="M30.64,148.95c1.66-0.47,2.96,0.55,3.34,1.89c0.37,1.31-0.15,2.85-1.86,3.33
	c-1.58,0.45-2.85-0.59-3.24-1.94C28.54,150.98,29.08,149.4,30.64,148.95z M221.01,151.06c0.37-1.36-0.18-2.91-1.76-3.34
	c-1.72-0.46-2.95,0.58-3.31,1.9c-0.37,1.34,0.22,2.9,1.88,3.35C219.39,153.4,220.67,152.33,221.01,151.06z"/>
<path fill="none" stroke="#CB2C30" stroke-width="4.4691" stroke-miterlimit="3.864" d="M3.23,124.94L3.23,124.94
	C3.29,57.73,57.79,3.23,125.06,3.23c67.21-0.01,121.71,54.5,121.71,121.71c0.01,67.26-54.5,121.77-121.71,121.82
	C57.79,246.71,3.29,192.21,3.23,124.94"/>
<path fill="none" stroke="#000000" stroke-width="2.2345" stroke-miterlimit="3.864" d="M43.48,124.92L43.48,124.92
	C43.45,79.76,80.09,43.13,125.3,43.1c45.15,0.03,81.79,36.66,81.82,81.82c-0.03,45.22-36.66,81.85-81.82,81.82
	C80.09,206.77,43.45,170.14,43.48,124.92 M11.05,125.11L11.05,125.11C11.01,62.26,61.98,11.28,124.89,11.27
	c62.85,0.02,113.83,50.99,113.85,113.85c-0.02,62.91-50.99,113.89-113.85,113.85C61.98,239,11.01,188.02,11.05,125.11"/>
<path stroke="#000000" stroke-width="0.3353" d="M111.62,186.19c0-0.39-0.08-0.74-0.37-0.74c-0.16,0-0.37,0.02-0.72,0.12l-0.79,0.22
	c-0.08,0.02-0.14,0.02-0.18-0.05l-0.11-0.32c-0.03-0.06-0.02-0.13,0.1-0.2l3.91-1.91c0.12-0.05,0.2-0.09,0.3-0.09
	c0.1,0,0.15,0.11,0.15,0.24c0,0.13-0.05,2.66-0.05,4.73v0.67c0,0.84,0.02,3.61,0.02,3.79c0.02,0.83,0.08,0.95,0.88,0.95h0.58
	c0.11,0,0.16,0.05,0.16,0.13v0.42c0,0.08-0.05,0.11-0.18,0.11c-0.11,0-2.3-0.05-2.58-0.05c-0.47,0-2.73,0.05-2.81,0.05
	c-0.1,0-0.13-0.03-0.13-0.11v-0.43c0-0.1,0.09-0.12,0.22-0.12h0.42c0.88,0,1.12-0.05,1.16-0.87c0.03-0.67,0.02-2.44,0.02-3.02
	V186.19z M120.57,194.45c2.25,0,3.54-1.61,3.54-2.94c0-1.59-0.85-2.46-2.28-3.22c1.59-0.92,2.06-1.64,2.06-2.87
	c0-1.14-1.21-2.2-2.9-2.2c-2.46,0-3.68,1.78-3.68,3.09c0,1.38,0.79,1.93,2.11,2.88c-1.17,0.73-2.04,1.59-2.04,3.01
	C117.37,193.24,118.22,194.45,120.57,194.45z M120.55,193.82c-0.64,0-1.64-0.61-1.64-1.98c0-1.04,0.52-1.83,1.06-2.27
	c1.59,0.88,2.16,1.47,2.16,2.4C122.13,193.14,121.57,193.82,120.55,193.82z M120.83,183.96c0.94-0.03,1.47,0.82,1.47,1.9
	c0,1-0.52,1.71-1.09,2.11c-1.38-0.79-1.85-1.21-1.85-2.06C119.35,184.91,119.81,183.96,120.83,183.96z M129.32,194.45
	c2.25,0,3.54-1.61,3.54-2.94c0-1.59-0.85-2.46-2.28-3.22c1.59-0.92,2.06-1.64,2.06-2.87c0-1.14-1.21-2.2-2.9-2.2
	c-2.46,0-3.68,1.78-3.68,3.09c0,1.38,0.79,1.93,2.11,2.88c-1.17,0.73-2.04,1.59-2.04,3.01
	C126.12,193.24,126.97,194.45,129.32,194.45z M129.31,193.82c-0.64,0-1.64-0.61-1.64-1.98c0-1.04,0.52-1.83,1.06-2.27
	c1.59,0.88,2.16,1.47,2.16,2.4C130.88,193.14,130.32,193.82,129.31,193.82z M129.58,183.96c0.94-0.03,1.47,0.82,1.47,1.9
	c0,1-0.52,1.71-1.09,2.11c-1.38-0.79-1.85-1.21-1.85-2.06C128.1,184.91,128.57,183.96,129.58,183.96z M137.87,183.22
	c-0.92,0-1.62,0.29-2.32,0.88c-0.61,0.51-1.16,1.77-1.16,2.94s0.76,2.86,2.67,2.86c0.97,0,1.53-0.27,1.77-0.47h0.11
	c-0.34,2.23-1.85,3.97-3.2,4.49c-0.11,0.05-0.21,0.16-0.21,0.27c0,0.19,0.13,0.24,0.26,0.24c0.11,0,0.34-0.03,0.5-0.08
	c0.96-0.27,1.66-0.63,2.58-1.4c1.72-1.45,2.6-3.86,2.6-6.03c0-0.5-0.16-1.53-0.9-2.53C139.93,183.56,139.19,183.22,137.87,183.22z
	 M137.92,183.81c1,0,1.24,1.32,1.24,2.81c0,0.74,0.02,1.74-0.24,2.03c-0.21,0.21-0.53,0.32-0.9,0.32c-0.87,0-1.53-1.17-1.53-2.77
	C136.49,184.73,136.97,183.81,137.92,183.81z"/>
<path d="M56.66,136.87c-0.1-0.6-0.25-1.23-0.34-1.51c-0.07-0.26-0.32-0.52-0.69-0.71c-0.24-0.13-0.59-0.19-0.87-0.2
	c-0.08,0-0.13-0.04-0.14-0.1l-0.02-0.36c-0.02-0.06,0.03-0.1,0.09-0.11c0.27-0.01,1.55-0.23,1.76-0.26
	c0.55-0.09,1.29-0.26,1.59-0.35c0.08-0.01,0.12,0.02,0.14,0.09l0.14,0.33c0.02,0.06-0.02,0.12-0.11,0.15
	c-0.12,0.05-0.55,0.3-0.69,0.41c-0.23,0.23-0.46,0.57-0.49,0.86c-0.01,0.51,0.07,1.05,0.17,1.68l0.59-0.09
	c0.46-0.08,3.05-0.52,3.25-0.56c0.42-0.07,0.47-0.24,0.43-0.45l-0.15-0.91c-0.02-0.09,0.01-0.14,0.07-0.15l0.41-0.07
	c0.09-0.02,0.13,0.01,0.14,0.1c0.02,0.15,0.08,0.78,0.35,2.38c0.25,1.51,0.39,2.09,0.43,2.32c0.01,0.06-0.01,0.09-0.12,0.11
	l-0.42,0.07c-0.06,0.01-0.09-0.03-0.09-0.09l-0.09-0.54c-0.05-0.32-0.13-0.44-0.38-0.41c-0.31,0.04-2.27,0.31-4.92,0.76l-1.08,0.18
	c-0.68,0.11-2.85,0.5-3.01,0.53c-0.29,0.05-0.41,0.29-0.34,0.71l0.11,0.63c0.02,0.09-0.01,0.14-0.07,0.16l-0.45,0.07
	c-0.07,0.01-0.1-0.03-0.11-0.09c-0.03-0.17-0.08-0.76-0.39-2.65c-0.04-0.22-0.76-4.26-0.88-5.01c-0.06-0.34-0.17-0.67-0.2-0.8
	c-0.01-0.08,0.08-0.14,0.24-0.2l2.41-1.02c0.06-0.03,0.11-0.02,0.13,0.02l0.22,0.28c0.04,0.07,0.02,0.11-0.12,0.24
	c-0.23,0.25-0.66,0.7-1.22,1.44c-0.26,0.33-0.48,0.79-0.51,1.18c-0.05,0.41,0.18,2.05,0.29,2.74c0.2-0.03,3.28-0.53,4.22-0.68
	L56.66,136.87z M60.36,129.89c0.88-0.83,1.09-1.62,1.05-2.76c-0.04-1.06-0.38-1.96-1.19-2.68c-0.68-0.59-1.57-0.95-2.47-0.92
	c-0.95,0.03-1.79,0.37-2.45,1.16c-0.63,0.73-0.93,1.47-0.89,2.55c0.02,0.73,0.22,1.52,0.88,2.3c0.76,0.93,1.94,1.28,2.64,1.26
	C58.9,130.78,59.72,130.51,60.36,129.89 M57.72,125.92c1.72-0.06,3,0.29,3.03,1.15c0.02,0.58-0.22,0.84-0.64,1.05
	c-0.66,0.34-1.25,0.44-2.16,0.47c-1.27,0.05-1.94-0.13-2.44-0.43c-0.32-0.19-0.44-0.44-0.45-0.83
	C55.03,126.64,55.91,125.98,57.72,125.92 M61.39,114.79c-0.01-0.06-0.04-0.1-0.12-0.09l-0.3,0.02c-0.06,0.01-0.1,0.05-0.08,0.18
	c0.03,0.19,0.01,0.42,0,0.52c-0.01,0.06-0.08,0.23-0.57,0.23c-0.28,0.01-1.05-0.06-1.79-0.13l-1.15-0.11
	c-1.58-0.14-1.97-0.26-2.11-0.29c-0.07-0.02-0.16,0.03-0.16,0.12c-0.01,0.05,0,0.11-0.01,0.19c0.01,0.08,0.02,0.16,0.01,0.27
	l-0.21,2.32c-0.01,0.16,0,0.19,0.12,0.2l0.3,0.02c0.08,0.01,0.1-0.07,0.14-0.25c0.06-0.39,0.22-0.66,0.61-0.62l3.66,0.32
	c0.16,0.02,0.39,0.15,0.54,0.3c0.27,0.26,0.45,0.62,0.42,0.89c-0.03,0.28-0.02,0.53-0.4,0.73c-0.64,0.33-1.8,0.13-2.43,0.07
	l-0.84-0.08c-1.23-0.11-1.96-0.23-2.09-0.26c-0.11-0.02-0.2,0.05-0.2,0.16c-0.01,0.05,0,0.11,0,0.17c0.01,0.06,0.02,0.13,0.01,0.22
	l-0.21,2.27c-0.01,0.14,0.02,0.17,0.11,0.18l0.31,0.03c0.08,0.01,0.07-0.07,0.14-0.33c0.05-0.18,0.22-0.5,0.6-0.48
	c0.34,0.02,0.96,0.07,1.56,0.13l0.68,0.08c1.34,0.12,1.83,0.23,2.77-0.34c0.77-0.48,0.81-0.95,0.86-1.57
	c0.08-0.84-0.32-1.79-0.84-2.15l0.01-0.09l0.85-0.02c0.11,0,0.2-0.09,0.21-0.25c0.01-0.14-0.01-0.25-0.03-0.35L61.39,114.79z
	 M56.05,110.17c-0.12,0.01-0.21,0.08-0.23,0.17c-0.03,0.12,0.01,0.24,0.03,0.37l0.43,2.16c0.02,0.08,0.05,0.15,0.12,0.17l0.14,0.03
	c0.06,0.02,0.12,0.02,0.19-0.07l0.09-0.12c0.25-0.31,0.57-0.51,1.02-0.41l3.39,0.78c0.26,0.06,0.24,0.33,0.21,0.5l-0.05,0.23
	c-0.03,0.12,0.01,0.16,0.1,0.18l0.3,0.07c0.09,0.02,0.15,0,0.16-0.07c0.02-0.09,0.09-0.59,0.34-1.67c0.23-1.01,0.37-1.41,0.4-1.51
	c0.02-0.08-0.02-0.12-0.11-0.14l-0.29-0.07c-0.11-0.02-0.16,0-0.19,0.12l-0.05,0.2c-0.03,0.14-0.28,0.19-0.56,0.13l-3.12-0.75
	c-0.62-0.15-1.01-0.36-1.1-0.58c-0.16-0.36-0.19-0.57-0.12-0.85c0.05-0.26,0.14-0.47,0.45-0.69c0.36-0.25,0.77-0.2,1.35-0.07
	l1.63,0.38c0.7,0.16,1.18,0.3,1.56,0.46c0.27,0.09,0.31,0.25,0.29,0.36l-0.04,0.17c-0.04,0.15-0.02,0.21,0.09,0.23l0.27,0.06
	c0.12,0.03,0.17,0.01,0.2-0.08c0.02-0.11,0.09-0.6,0.32-1.61c0.28-1.22,0.44-1.68,0.46-1.79c0.02-0.09-0.03-0.13-0.14-0.16
	l-0.27-0.06c-0.09-0.02-0.14,0-0.17,0.13l-0.1,0.41c-0.03,0.14-0.16,0.37-0.62,0.24c-0.52-0.16-1.23-0.35-1.76-0.47l-1.61-0.37
	c-0.76-0.18-1.15-0.22-1.9,0.28c-0.46,0.31-0.65,0.88-0.79,1.47c-0.12,0.5-0.09,0.86,0.02,1.24c0.09,0.32,0.22,0.64,0.38,0.86
	l-0.03,0.12L56.05,110.17z M59.35,99.22c-0.2,0.24-0.45,0.63-0.64,1.11c-0.34,0.92-0.29,1.71,0.12,2.52
	c0.6,1.16,1.28,1.65,2.45,2.09c0.97,0.36,1.7,0.24,2.43-0.14c0.9-0.45,1.07-0.72,1.36-1.48c0.24-0.63,0.21-1.62-0.15-2.3l0.82,0.04
	c0.13,0,0.2-0.05,0.21-0.16l0.27-2.41c0-0.1-0.03-0.14-0.12-0.16l-0.24-0.04c-0.08-0.01-0.14,0.03-0.19,0.19
	c-0.09,0.37-0.17,0.55-0.41,0.6c-0.29,0.06-0.86-0.16-1.4-0.36l-3.23-1.22c-2.06-0.77-4.18-1.6-4.89-1.94
	c-0.15-0.08-0.28-0.05-0.31,0.03c-0.04,0.12-0.04,0.19-0.07,0.41c-0.08,0.52-0.42,1.68-0.67,2.57c-0.02,0.09,0.02,0.14,0.07,0.16
	l0.28,0.1c0.05,0.02,0.09,0.02,0.14-0.06c0.48-0.7,0.77-0.78,1.2-0.64L59.35,99.22z M63.77,100.85c0.32,0.12,0.58,0.25,0.65,0.41
	c0.09,0.2,0.18,0.41,0.03,0.81c-0.34,0.91-1.82,1.2-3.55,0.55c-0.7-0.27-1.16-0.57-1.51-1.1c-0.22-0.33-0.22-0.65-0.12-0.91
	c0.15-0.41,0.6-0.79,1.08-0.86c0.23-0.03,0.48,0.05,0.75,0.15L63.77,100.85z M66.04,91.37c0.16-0.3,0.21-0.44,0.03-0.53
	c-0.22-0.12-2.44-1.12-3.61,1.13c-0.56,1.07-0.6,2.12-0.12,3.01c0.59,1.1,1.32,1.48,1.71,1.69c1.09,0.55,1.75,0.6,2.88,0.29
	c0.74-0.19,1.27-0.85,1.74-1.74c0.68-1.3,0.2-2.7-0.19-3.22c-0.17-0.25-0.26-0.24-0.32-0.2l-0.24,0.17
	c-0.08,0.03-0.09,0.09-0.03,0.16c0.3,0.51,0.33,1.23-0.03,1.91c-0.53,1.01-1.66,1.46-3.1,0.71l-0.37-0.2L66.04,91.37z M63.86,94.25
	c-0.92-0.6-1.25-1.22-0.91-1.87c0.23-0.43,0.95-0.37,1.56-0.05c0.21,0.11,0.2,0.28,0.04,0.59L63.86,94.25z M67.45,84.25
	c-0.26,0.18-0.59,0.5-0.88,0.93c-0.56,0.81-0.7,1.59-0.49,2.47c0.3,1.27,0.85,1.91,1.87,2.62c0.85,0.59,1.59,0.64,2.39,0.45
	c0.99-0.21,1.22-0.44,1.68-1.11c0.38-0.55,0.6-1.52,0.41-2.26l0.78,0.24c0.13,0.03,0.21-0.01,0.24-0.1l0.84-2.27
	c0.03-0.09,0.01-0.15-0.08-0.19l-0.22-0.1c-0.07-0.03-0.15-0.01-0.23,0.15c-0.18,0.34-0.3,0.49-0.55,0.48
	c-0.29-0.02-0.79-0.36-1.27-0.69l-2.84-1.96c-1.81-1.25-3.66-2.57-4.27-3.07c-0.13-0.11-0.26-0.12-0.31-0.04
	c-0.07,0.1-0.08,0.17-0.17,0.38c-0.2,0.49-0.81,1.53-1.27,2.34c-0.04,0.09-0.02,0.14,0.03,0.17l0.24,0.17
	c0.05,0.03,0.09,0.04,0.15-0.03c0.64-0.57,0.94-0.57,1.31-0.33L67.45,84.25z M71.35,86.9c0.28,0.2,0.5,0.38,0.53,0.55
	c0.04,0.22,0.07,0.45-0.17,0.8c-0.55,0.8-2.06,0.73-3.58-0.32c-0.62-0.43-0.98-0.83-1.19-1.43c-0.14-0.38-0.06-0.69,0.1-0.92
	c0.25-0.36,0.77-0.62,1.25-0.58c0.23,0.02,0.46,0.16,0.69,0.32L71.35,86.9z M73.09,75.21c0.58-0.62,0.42-1.24,0.06-1.59
	c-0.31-0.3-0.91-0.36-1.42,0.17c-0.46,0.47-0.49,1.16-0.13,1.51C72.04,75.71,72.67,75.67,73.09,75.21 M80.38,79.28
	c0.08-0.08,0.06-0.13-0.01-0.21l-0.21-0.2c-0.07-0.07-0.12-0.08-0.21,0.01l-0.39,0.41c-0.12,0.13-0.25,0.1-0.48-0.08
	c-0.13-0.11-0.54-0.5-0.98-0.93l-1.2-1.16c-0.99-0.96-1.7-1.64-1.87-1.85c-0.07-0.09-0.16-0.11-0.25-0.02
	c-0.07,0.08-0.15,0.2-0.22,0.37l-1.08,2.19c-0.06,0.13-0.06,0.18-0.03,0.21l0.12,0.12c0.07,0.06,0.13,0.1,0.29,0.02
	c0.63-0.31,0.92-0.16,1.23,0.15l1.6,1.5c0.31,0.3,0.66,0.64,0.98,0.99c0.17,0.19,0.14,0.31,0.02,0.43l-0.4,0.41
	c-0.08,0.08-0.09,0.13-0.02,0.2l0.22,0.22c0.09,0.09,0.14,0.08,0.2,0.02c0.12-0.12,0.51-0.59,1.14-1.25
	C79.76,79.86,80.29,79.37,80.38,79.28 M78.99,71.58c-0.09-0.06-0.21-0.06-0.29-0.01c-0.1,0.08-0.14,0.2-0.2,0.31l-0.97,1.98
	c-0.04,0.07-0.06,0.15-0.01,0.21l0.09,0.11c0.04,0.05,0.09,0.09,0.2,0.06l0.15-0.04c0.38-0.1,0.76-0.06,1.06,0.3l2.21,2.68
	c0.17,0.2,0,0.41-0.13,0.52l-0.18,0.15c-0.1,0.08-0.09,0.13-0.03,0.21l0.2,0.24c0.06,0.07,0.11,0.09,0.17,0.04
	c0.07-0.06,0.43-0.41,1.28-1.12c0.79-0.66,1.15-0.89,1.23-0.96c0.06-0.05,0.06-0.11-0.01-0.18l-0.19-0.23
	c-0.07-0.09-0.13-0.1-0.22-0.02l-0.16,0.13c-0.11,0.09-0.34-0.02-0.52-0.24l-2.02-2.49c-0.41-0.49-0.58-0.9-0.53-1.13
	c0.09-0.38,0.2-0.57,0.42-0.75c0.21-0.17,0.39-0.29,0.77-0.27c0.45,0.02,0.74,0.3,1.12,0.76l1.06,1.29
	c0.46,0.55,0.76,0.96,0.96,1.31c0.16,0.24,0.1,0.39,0.02,0.46l-0.13,0.11c-0.12,0.1-0.14,0.16-0.07,0.24l0.18,0.22
	c0.08,0.1,0.13,0.11,0.21,0.05c0.09-0.07,0.44-0.43,1.24-1.09c0.96-0.8,1.37-1.07,1.45-1.14c0.07-0.06,0.06-0.13-0.01-0.21
	l-0.18-0.22c-0.06-0.07-0.11-0.09-0.22,0l-0.33,0.27c-0.11,0.09-0.35,0.19-0.64-0.19c-0.33-0.44-0.77-1.03-1.11-1.44l-1.05-1.28
	c-0.5-0.6-0.79-0.87-1.68-0.93c-0.55-0.03-1.05,0.3-1.52,0.69c-0.4,0.33-0.59,0.63-0.74,1c-0.13,0.31-0.21,0.65-0.22,0.91
	l-0.09,0.08L78.99,71.58z M89.15,65.42c0.18,0.36,1.53,3.09,1.84,3.75c0.16,0.31,0.28,0.66-0.07,0.84l-0.64,0.32
	c-0.13,0.06-0.13,0.1-0.07,0.2l0.15,0.29c0.06,0.11,0.09,0.15,0.21,0.08c0.28-0.14,0.68-0.39,2.16-1.14
	c1.17-0.59,1.68-0.8,1.93-0.93c0.11-0.05,0.1-0.1,0.06-0.19l-0.17-0.34c-0.05-0.09-0.07-0.11-0.19-0.05l-0.39,0.2
	c-0.31,0.16-0.52,0.09-0.7-0.24c-0.52-0.93-1.66-3.05-1.84-3.4l-0.1-0.21c-0.06-0.12-0.04-0.19,0.11-0.27l4.18-2.11
	c0.16-0.09,0.31-0.14,0.39,0.01l0.09,0.17c0.23,0.45,1.34,2.71,1.64,3.38c0.16,0.36,0.26,0.64-0.08,0.81l-0.62,0.31
	c-0.14,0.07-0.13,0.12-0.09,0.2l0.16,0.31c0.03,0.07,0.1,0.13,0.25,0.05c0.32-0.16,0.74-0.43,2.17-1.15
	c1.26-0.63,1.76-0.83,1.98-0.95c0.14-0.07,0.12-0.15,0.08-0.22l-0.16-0.31c-0.04-0.08-0.08-0.12-0.19-0.06l-0.48,0.24
	c-0.42,0.21-0.66,0.09-0.91-0.41c-0.4-0.76-1.77-3.4-2-3.84l-0.24-0.48c-0.26-0.52-1.43-2.89-1.53-3.09
	c-0.24-0.48-0.32-0.73,0.09-0.94l0.42-0.21c0.16-0.09,0.15-0.15,0.1-0.25l-0.13-0.27c-0.06-0.11-0.09-0.15-0.26-0.06
	c-0.18,0.09-0.75,0.43-1.91,1.02c-1.19,0.6-1.8,0.86-2.06,0.99c-0.11,0.05-0.11,0.1-0.06,0.19l0.16,0.31
	c0.05,0.09,0.08,0.13,0.21,0.07l0.57-0.29c0.25-0.13,0.44,0.11,0.68,0.55c0.07,0.14,1.15,2.03,1.55,2.83l0.07,0.14
	c0.08,0.16,0.02,0.22-0.19,0.32l-4.17,2.11c-0.18,0.09-0.24,0.07-0.28,0l-0.1-0.21c-0.39-0.78-1.26-2.66-1.34-2.86
	c-0.23-0.55-0.28-0.82,0.22-1.08L90,59.4c0.15-0.08,0.15-0.13,0.1-0.21l-0.15-0.29c-0.05-0.11-0.09-0.15-0.24-0.07
	c-0.23,0.12-0.72,0.42-2.09,1.11c-1.4,0.7-1.87,0.89-2.1,1.01c-0.14,0.07-0.11,0.16-0.07,0.24l0.13,0.27
	c0.04,0.08,0.09,0.13,0.24,0.05l0.57-0.29c0.38-0.19,0.57-0.05,0.94,0.66c0.1,0.2,1.08,2.07,1.52,2.93L89.15,65.42z M102.43,64.24
	c1.03,0.62,1.85,0.61,2.94,0.26c1.01-0.32,1.79-0.9,2.26-1.87c0.38-0.81,0.49-1.77,0.21-2.63c-0.29-0.91-0.84-1.62-1.78-2.04
	c-0.87-0.41-1.67-0.5-2.7-0.18c-0.7,0.22-1.41,0.63-1.98,1.47c-0.69,0.99-0.71,2.21-0.49,2.88
	C101.18,63.07,101.66,63.79,102.43,64.24 M105.54,60.62c0.52,1.64,0.53,2.97-0.29,3.23c-0.55,0.18-0.87,0.02-1.19-0.33
	c-0.5-0.55-0.76-1.09-1.03-1.95c-0.38-1.21-0.39-1.91-0.24-2.47c0.1-0.36,0.3-0.54,0.68-0.66
	C104.12,58.23,104.99,58.89,105.54,60.62 M110.94,56.02c-0.05-0.1-0.16-0.16-0.25-0.15c-0.13,0.02-0.22,0.1-0.34,0.17l-1.81,1.25
	c-0.07,0.04-0.13,0.1-0.11,0.18l0.02,0.14c0.01,0.06,0.04,0.12,0.14,0.15l0.15,0.04c0.38,0.11,0.7,0.32,0.78,0.78l0.61,3.42
	c0.05,0.26-0.21,0.35-0.37,0.38l-0.23,0.04c-0.12,0.02-0.15,0.07-0.13,0.16l0.05,0.31c0.02,0.09,0.06,0.13,0.14,0.12
	c0.09-0.02,0.58-0.15,1.67-0.35c1.02-0.18,1.44-0.21,1.55-0.23c0.08-0.02,0.1-0.07,0.08-0.16l-0.05-0.29
	c-0.02-0.11-0.06-0.15-0.18-0.13l-0.2,0.04c-0.14,0.02-0.28-0.19-0.34-0.46l-0.53-3.16c-0.11-0.63-0.07-1.07,0.09-1.24
	c0.27-0.29,0.45-0.4,0.73-0.45c0.26-0.05,0.48-0.05,0.8,0.14c0.37,0.23,0.49,0.63,0.6,1.21l0.3,1.65c0.13,0.71,0.19,1.21,0.19,1.62
	c0.02,0.28-0.1,0.38-0.21,0.4l-0.16,0.03c-0.16,0.03-0.2,0.07-0.18,0.18l0.05,0.27c0.02,0.13,0.06,0.16,0.15,0.15
	c0.11-0.02,0.59-0.16,1.61-0.34c1.23-0.22,1.71-0.26,1.82-0.28c0.09-0.02,0.11-0.09,0.09-0.19l-0.05-0.28
	c-0.02-0.09-0.05-0.13-0.2-0.11l-0.41,0.07c-0.14,0.02-0.4-0.01-0.47-0.47c-0.07-0.55-0.17-1.27-0.26-1.8l-0.29-1.63
	c-0.14-0.77-0.25-1.15-1.01-1.63c-0.47-0.3-1.06-0.25-1.66-0.15c-0.51,0.09-0.83,0.26-1.13,0.5c-0.26,0.21-0.51,0.46-0.64,0.69
	l-0.12,0.02L110.94,56.02z M118.78,60.57c0.84,0.87,1.63,1.07,2.77,1.01c1.06-0.05,1.95-0.41,2.67-1.22
	c0.58-0.69,0.93-1.58,0.88-2.48c-0.04-0.95-0.4-1.78-1.2-2.43c-0.73-0.62-1.48-0.92-2.56-0.87c-0.73,0.03-1.52,0.24-2.29,0.91
	c-0.92,0.78-1.25,1.95-1.22,2.66C117.88,59.12,118.15,59.94,118.78,60.57 M122.72,57.88c0.08,1.72-0.25,3-1.11,3.04
	c-0.58,0.03-0.84-0.21-1.06-0.62c-0.34-0.66-0.45-1.25-0.49-2.15c-0.05-1.27,0.11-1.95,0.4-2.45c0.19-0.32,0.43-0.44,0.83-0.46
	C121.97,55.2,122.63,56.06,122.72,57.88 M129.42,57.32c0.01-0.2,0.09-0.5,0.33-0.91c0.1-0.2,0.27-0.27,0.42-0.26
	c0.13,0.01,0.26,0.05,0.38,0.14c0.13,0.1,0.33,0.16,0.55,0.17c0.52,0.03,1.03-0.4,1.06-0.82c0.03-0.55-0.3-0.93-0.77-0.96
	c-0.69-0.04-1.4,0.38-1.95,1.38l-0.12-0.01l-0.06-1.23c-0.01-0.09-0.06-0.19-0.17-0.2c-0.09,0-0.16,0.02-0.25,0.05l-2.25,0.81
	c-0.1,0.02-0.13,0.05-0.13,0.12l-0.01,0.14c0,0.06,0.02,0.09,0.11,0.15l0.26,0.17c0.45,0.3,0.59,0.59,0.55,1.26l-0.09,1.3
	c-0.05,0.78-0.09,1.33-0.14,1.76c-0.05,0.28-0.2,0.37-0.43,0.35l-0.45-0.03c-0.14-0.01-0.17,0.02-0.18,0.13l-0.02,0.3
	c-0.01,0.13,0.02,0.16,0.08,0.16c0.09,0.01,0.75,0,1.96,0.08c1.41,0.09,2.12,0.18,2.21,0.19c0.06,0,0.08-0.04,0.09-0.14l0.02-0.31
	c0.01-0.09-0.01-0.14-0.1-0.15l-0.64-0.04c-0.33-0.02-0.48-0.19-0.45-0.67L129.42,57.32z M140.36,58.97
	c-0.46,0.18-0.87,0.26-2.2,0.55c-1.1,0.26-1.59,0.88-1.74,1.55c-0.19,0.82,0.15,1.51,0.68,1.63c0.44,0.1,0.8,0.16,1.13,0.12
	c0.66-0.09,1.03-0.23,1.49-0.49l0.07,0.02c0.13,0.78,0.64,1.13,1.23,1.27c0.94,0.22,1.57-0.39,1.78-0.68c0.09-0.12,0.06-0.18,0-0.22
	l-0.18-0.17c-0.04-0.04-0.09-0.04-0.17,0.04c-0.09,0.09-0.29,0.22-0.51,0.17c-0.29-0.07-0.28-0.32-0.11-1.12l0.67-3.04
	c0.13-0.55,0.14-1.01-0.12-1.39c-0.25-0.37-0.48-0.58-1.45-0.8c-1.23-0.29-2.41,0.02-3.19,0.45c-0.38,0.2-0.6,0.63-0.68,0.97
	c-0.08,0.34,0.18,0.62,0.53,0.7c0.61,0.14,1.07-0.12,1.19-0.64c0.11-0.49-0.01-0.79,0.26-0.89c0.31-0.12,0.59-0.12,0.86-0.05
	c0.24,0.06,0.48,0.16,0.59,0.33c0.16,0.23,0.1,0.59,0.03,0.89L140.36,58.97z M139.73,61.75c-0.03,0.14-0.42,0.45-0.84,0.38
	c-0.33-0.09-0.59-0.46-0.42-1.16c0.24-1.05,0.92-1.13,1.77-1.39L139.73,61.75z M147.96,58.66c0.01-0.11-0.05-0.22-0.14-0.25
	c-0.12-0.05-0.24-0.02-0.38-0.02l-2.19,0.15c-0.08,0-0.16,0.02-0.18,0.1l-0.05,0.13c-0.02,0.06-0.03,0.12,0.04,0.2l0.11,0.11
	c0.27,0.29,0.43,0.63,0.27,1.07l-1.22,3.25c-0.09,0.25-0.36,0.2-0.52,0.14l-0.22-0.08c-0.12-0.04-0.16-0.01-0.2,0.08l-0.11,0.29
	c-0.04,0.09-0.02,0.14,0.05,0.17c0.09,0.03,0.57,0.16,1.62,0.55c0.96,0.36,1.34,0.55,1.44,0.59c0.07,0.03,0.12-0.01,0.15-0.09
	l0.1-0.28c0.04-0.1,0.03-0.16-0.09-0.2l-0.19-0.07c-0.13-0.05-0.15-0.31-0.05-0.57l1.16-2.99c0.22-0.6,0.49-0.95,0.72-1.02
	c0.37-0.11,0.59-0.11,0.86-0.01c0.25,0.09,0.45,0.2,0.62,0.53c0.2,0.39,0.1,0.79-0.11,1.35l-0.59,1.57
	c-0.25,0.67-0.45,1.13-0.65,1.49c-0.13,0.25-0.29,0.28-0.39,0.24l-0.16-0.06c-0.15-0.05-0.2-0.04-0.24,0.06l-0.1,0.27
	c-0.04,0.12-0.03,0.17,0.06,0.2c0.1,0.04,0.59,0.17,1.55,0.53c1.17,0.44,1.61,0.65,1.71,0.69c0.09,0.03,0.14-0.01,0.18-0.12
	l0.09-0.27c0.04-0.09,0.02-0.14-0.11-0.19l-0.4-0.15c-0.13-0.05-0.34-0.21-0.16-0.64c0.22-0.5,0.51-1.18,0.7-1.68l0.58-1.55
	c0.28-0.73,0.37-1.12-0.03-1.92c-0.25-0.49-0.79-0.76-1.36-0.98c-0.48-0.18-0.84-0.2-1.23-0.14c-0.34,0.04-0.67,0.13-0.91,0.26
	l-0.11-0.04L147.96,58.66z M158.33,63.34c-0.21-0.24-0.57-0.53-1.02-0.78c-0.87-0.46-1.66-0.51-2.51-0.2
	c-1.23,0.44-1.8,1.06-2.4,2.16c-0.48,0.91-0.45,1.65-0.17,2.42c0.33,0.95,0.57,1.16,1.29,1.54c0.59,0.32,1.59,0.42,2.3,0.14
	l-0.14,0.81c-0.02,0.13,0.02,0.21,0.12,0.23l2.35,0.58c0.1,0.02,0.15-0.01,0.18-0.1l0.07-0.23c0.02-0.08-0.01-0.15-0.17-0.22
	c-0.35-0.13-0.52-0.24-0.54-0.48c-0.02-0.3,0.27-0.84,0.54-1.34l1.62-3.05c1.04-1.94,2.13-3.93,2.55-4.59
	c0.1-0.14,0.09-0.27,0.01-0.31c-0.11-0.06-0.18-0.06-0.39-0.12c-0.51-0.15-1.61-0.63-2.47-0.99c-0.09-0.03-0.14-0.01-0.17,0.05
	l-0.14,0.26c-0.03,0.05-0.03,0.09,0.04,0.15c0.64,0.57,0.67,0.87,0.48,1.27L158.33,63.34z M156.15,67.51
	c-0.16,0.3-0.32,0.54-0.49,0.59c-0.21,0.07-0.44,0.12-0.81-0.08c-0.85-0.45-0.95-1.96-0.09-3.59c0.35-0.66,0.71-1.07,1.29-1.35
	c0.36-0.18,0.67-0.14,0.92-0.01c0.39,0.21,0.71,0.7,0.72,1.18c0,0.23-0.11,0.47-0.24,0.72L156.15,67.51z M171.96,77.02
	c0.29-0.34,0.52-0.3,0.73-0.11l0.34,0.3c0.07,0.06,0.11,0.05,0.17-0.02l0.25-0.3c0.05-0.06,0.07-0.11-0.03-0.19
	c-0.09-0.08-0.57-0.42-1.66-1.36c-1.07-0.91-1.62-1.45-1.73-1.54c-0.07-0.06-0.11-0.04-0.15,0.01l-0.25,0.3
	c-0.05,0.06-0.08,0.12-0.01,0.18l0.5,0.43c0.3,0.25,0.32,0.48-0.05,0.9l-0.73,0.86c-0.53,0.62-0.88,0.98-1.23,0.88
	c-0.55-0.15-0.92-0.38-1.55-0.91c-0.8-0.69-1.05-1.33-1.12-2.36c-0.09-1.19,0.56-2.75,1.76-4.16c0.91-1.07,2.16-1.71,3.27-1.9
	c1.15-0.21,1.92,0.09,2.56,0.64c0.81,0.69,1.16,1.51,1.25,2.34c0.11,0.9-0.16,1.99-0.46,2.73c-0.06,0.14-0.04,0.19,0.04,0.24
	l0.4,0.21c0.06,0.03,0.12-0.02,0.23-0.17l1.92-2.6c0.11-0.13,0.15-0.24,0.02-0.36c-0.07-0.06-0.13-0.05-0.26-0.01l-0.28,0.09
	c-0.15,0.03-0.26-0.02-0.33-0.22c-0.18-0.59-0.79-1.68-1.99-2.71c-1.43-1.22-2.84-1.73-4.36-1.71c-1.51,0.01-3,0.73-3.93,1.8
	c-1.23,1.44-1.73,2.76-1.7,4.21c0,1.66,1.05,3.24,2.29,4.3c1.51,1.29,2.76,1.88,4.14,2.22c0.16,0.05,0.27,0.07,0.35-0.03
	c0.08-0.09,0.13-0.25,0.27-0.42L171.96,77.02z M171.9,80.96c-0.18,1.19,0.15,1.94,0.89,2.81c0.69,0.81,1.52,1.3,2.6,1.37
	c0.89,0.04,1.82-0.23,2.51-0.82c0.73-0.62,1.16-1.4,1.19-2.43c0.04-0.96-0.18-1.73-0.88-2.56c-0.48-0.56-1.12-1.05-2.12-1.26
	c-1.18-0.25-2.31,0.2-2.85,0.66C172.49,79.36,172.01,80.08,171.9,80.96 M176.44,82.43c-1.31,1.11-2.53,1.64-3.09,0.98
	c-0.37-0.44-0.35-0.79-0.16-1.22c0.31-0.67,0.71-1.12,1.4-1.7c0.96-0.82,1.61-1.1,2.18-1.18c0.37-0.05,0.62,0.07,0.87,0.37
	C178.1,80.2,177.82,81.26,176.44,82.43 M177.11,87.34c-0.32,1.16-0.09,1.95,0.53,2.91c0.58,0.89,1.34,1.48,2.41,1.68
	c0.88,0.15,1.83,0,2.59-0.49c0.8-0.52,1.34-1.24,1.5-2.26c0.16-0.95,0.04-1.74-0.55-2.65c-0.4-0.62-0.98-1.19-1.94-1.52
	c-1.14-0.4-2.32-0.09-2.91,0.29C177.9,85.83,177.34,86.48,177.11,87.34 M181.43,89.38c-1.44,0.94-2.72,1.3-3.19,0.59
	c-0.32-0.49-0.24-0.83,0-1.23c0.39-0.63,0.85-1.02,1.61-1.52c1.06-0.69,1.74-0.89,2.31-0.89c0.37,0,0.6,0.15,0.81,0.48
	C183.35,87.38,182.95,88.39,181.43,89.38 M188.24,95.32c-0.03-0.31-0.15-0.76-0.37-1.23c-0.43-0.89-1.03-1.39-1.91-1.65
	c-1.25-0.37-2.08-0.22-3.21,0.33c-0.93,0.45-1.34,1.06-1.58,1.85c-0.3,0.96-0.22,1.27,0.13,2c0.29,0.61,1.03,1.27,1.77,1.48
	l-0.59,0.56c-0.09,0.1-0.1,0.19-0.03,0.26l1.55,1.86c0.07,0.07,0.12,0.08,0.2,0.02l0.19-0.15c0.06-0.05,0.08-0.13-0.01-0.27
	c-0.2-0.32-0.28-0.51-0.15-0.71c0.16-0.25,0.71-0.51,1.23-0.77l3.11-1.5c1.99-0.96,4.05-1.91,4.78-2.19
	c0.16-0.06,0.23-0.16,0.19-0.25c-0.05-0.11-0.11-0.16-0.25-0.33c-0.32-0.42-0.93-1.46-1.4-2.26c-0.05-0.08-0.11-0.09-0.16-0.06
	l-0.27,0.13c-0.05,0.03-0.08,0.05-0.05,0.15c0.18,0.84,0.03,1.1-0.36,1.3L188.24,95.32z M184.01,97.39
	c-0.31,0.15-0.58,0.24-0.74,0.19c-0.21-0.07-0.42-0.16-0.61-0.54c-0.42-0.87,0.39-2.15,2.05-2.95c0.68-0.33,1.21-0.45,1.84-0.33
	c0.4,0.07,0.63,0.29,0.75,0.54c0.19,0.4,0.16,0.98-0.12,1.38c-0.14,0.19-0.37,0.32-0.62,0.44L184.01,97.39z M192.09,106.94
	c0.93-0.24,3.95-0.99,4.14-1.04c0.17,0.68,0.54,2.3,0.53,2.71c0,0.39-0.18,0.87-0.41,1.22c-0.49,0.79-0.88,1.27-1.09,1.54
	c-0.12,0.14-0.15,0.18-0.1,0.25l0.24,0.26c0.03,0.04,0.08,0.05,0.13,0.02l2.32-1.22c0.16-0.07,0.23-0.14,0.22-0.22
	c-0.03-0.12-0.18-0.44-0.26-0.77c-0.18-0.73-1.24-4.7-1.3-4.92c-0.47-1.85-0.57-2.44-0.62-2.6c-0.01-0.06-0.05-0.1-0.12-0.08
	l-0.44,0.11c-0.06,0.02-0.08,0.07-0.05,0.16l0.16,0.62c0.11,0.41,0.01,0.66-0.28,0.73c-0.15,0.04-2.28,0.61-2.95,0.78l-1.06,0.27
	c-2.61,0.66-4.53,1.1-4.83,1.17c-0.25,0.05-0.34-0.06-0.42-0.38l-0.13-0.53c-0.02-0.06-0.04-0.1-0.1-0.09l-0.41,0.11
	c-0.11,0.02-0.13,0.06-0.12,0.13c0.06,0.23,0.25,0.79,0.63,2.28c0.4,1.58,0.51,2.19,0.54,2.34c0.03,0.09,0.06,0.12,0.16,0.09
	l0.41-0.1c0.06-0.02,0.08-0.07,0.06-0.16l-0.23-0.89c-0.05-0.21-0.02-0.38,0.39-0.49c0.2-0.05,2.74-0.71,3.19-0.83l0.58-0.15
	c0.16,0.62,0.27,1.16,0.31,1.66c-0.01,0.29-0.21,0.65-0.42,0.9c-0.12,0.13-0.54,0.41-0.65,0.48c-0.09,0.04-0.12,0.09-0.09,0.15
	l0.16,0.31c0.04,0.07,0.08,0.1,0.15,0.08c0.3-0.11,1.01-0.34,1.56-0.48c0.21-0.05,1.47-0.38,1.74-0.41c0.06-0.02,0.1-0.05,0.08-0.12
	l-0.06-0.36c-0.01-0.06-0.07-0.09-0.15-0.09c-0.29,0.01-0.64-0.02-0.89-0.13c-0.38-0.16-0.65-0.4-0.74-0.65
	c-0.12-0.28-0.32-0.89-0.47-1.48L192.09,106.94z M191.82,116.67c-0.33-0.37-0.55-0.73-1.28-1.87c-0.62-0.95-1.38-1.18-2.06-1.09
	c-0.84,0.1-1.37,0.66-1.3,1.2c0.05,0.45,0.13,0.8,0.28,1.1c0.31,0.59,0.57,0.89,0.98,1.23l0.01,0.08c-0.69,0.39-0.84,0.99-0.76,1.59
	c0.12,0.96,0.91,1.34,1.25,1.44c0.15,0.04,0.19-0.01,0.21-0.08l0.1-0.23c0.02-0.05,0-0.1-0.1-0.15c-0.11-0.05-0.3-0.2-0.34-0.41
	c-0.04-0.3,0.2-0.37,1.01-0.49l3.08-0.42c0.56-0.07,1-0.22,1.27-0.6c0.25-0.36,0.37-0.65,0.25-1.64c-0.16-1.26-0.85-2.26-1.52-2.84
	c-0.32-0.29-0.8-0.34-1.14-0.3c-0.34,0.04-0.52,0.38-0.48,0.74c0.08,0.62,0.48,0.96,1.01,0.9c0.5-0.06,0.74-0.28,0.92-0.07
	c0.22,0.25,0.32,0.51,0.35,0.79c0.03,0.25,0.02,0.5-0.1,0.67c-0.16,0.23-0.52,0.3-0.83,0.34L191.82,116.67z M189,117.05
	c-0.14,0.02-0.57-0.24-0.65-0.66c-0.03-0.34,0.23-0.71,0.94-0.8c1.07-0.14,1.38,0.47,1.91,1.18L189,117.05z M188.13,125.36
	c0,0.11,0.05,0.14,0.16,0.14l0.3-0.01c0.09,0,0.14-0.03,0.14-0.16l-0.01-0.56c0-0.17,0.1-0.25,0.4-0.29
	c0.17-0.02,0.73-0.03,1.34-0.05l1.67-0.04c1.38-0.03,2.36-0.05,2.63-0.03c0.11,0.01,0.19-0.04,0.19-0.16c0-0.11-0.04-0.25-0.1-0.42
	l-0.8-2.31c-0.05-0.14-0.09-0.17-0.13-0.17l-0.17,0c-0.09,0-0.15,0.02-0.21,0.19c-0.22,0.66-0.53,0.76-0.97,0.77l-2.19,0.08
	c-0.44,0.01-0.93,0.02-1.39,0c-0.25-0.01-0.32-0.12-0.32-0.29l-0.01-0.58c0-0.11-0.03-0.16-0.13-0.16l-0.31,0.01
	c-0.12,0-0.15,0.05-0.15,0.13c0,0.17,0.07,0.78,0.08,1.69C188.15,124.52,188.12,125.24,188.13,125.36 M196.15,123.04
	c0.03,0.84,0.59,1.18,1.09,1.16c0.44-0.01,0.9-0.4,0.88-1.13c-0.02-0.66-0.48-1.16-0.98-1.15
	C196.53,121.94,196.12,122.42,196.15,123.04 M191.49,129.7c0.72,0.04,1.47,0.09,2.1,0.16l-0.12,1.83c-0.01,0.09,0.05,0.13,0.12,0.15
	l0.66,0.2c0.06,0.04,0.15-0.01,0.15-0.1l0.13-1.98l1.65,0.17c0.12,0.01,0.24-0.05,0.25-0.19c0.01-0.08-0.02-0.19-0.13-0.3
	c-0.62-0.62-1.71-2.01-1.91-2.54c-0.11-0.26-0.21-0.36-0.37-0.37c-0.15-0.01-0.22,0.1-0.23,0.23l-0.06,0.86l-2.06-0.15
	c-0.59-0.04-1.77-0.15-2.32-0.18c-0.72-0.04-1.5,0.58-1.56,1.64c-0.08,1.22,0.31,1.94,0.48,2.23c0.04,0.06,0.12,0.12,0.2,0.07
	l0.24-0.09c0.1-0.04,0.1-0.09,0.08-0.14c-0.13-0.26-0.16-0.49-0.14-0.82c0.02-0.37,0.34-0.84,1.62-0.76L191.49,129.7z M191.8,135.99
	c0.4,0.07,0.58,0.25,0.71,0.4c0.22,0.28,0.43,0.67,0.37,1.01c-0.06,0.32-0.17,0.49-0.42,0.67c-0.48,0.33-1.55,0.09-2.3-0.05
	l-0.94-0.17c-0.46-0.09-1.27-0.27-1.48-0.32c-0.21-0.07-0.25-0.28-0.23-0.42l0.03-0.2c0.02-0.09-0.02-0.12-0.1-0.13l-0.29-0.05
	c-0.12-0.02-0.17,0-0.2,0.11c-0.03,0.14-0.08,0.7-0.27,1.76c-0.2,1.08-0.33,1.56-0.35,1.67c-0.02,0.09,0.04,0.13,0.13,0.15
	l0.32,0.06c0.08,0.02,0.12-0.02,0.14-0.15l0.05-0.29c0.03-0.19,0.11-0.49,0.32-0.45c0.29,0.05,1.23,0.25,2,0.4l0.95,0.17
	c0.98,0.18,1.74,0.38,2.48-0.23c0.48-0.41,0.76-0.77,0.89-1.46c0.16-0.85-0.06-1.66-0.58-2.14l0.02-0.11l0.93,0.17
	c0.91,0.16,4.03,0.75,4.28,0.83c0.26,0.08,0.38,0.07,0.41-0.07c0.03-0.15-0.01-0.29-0.07-0.51c-0.27-1-0.42-1.6-0.52-2.49
	c-0.02-0.23-0.07-0.28-0.13-0.29l-0.2-0.04c-0.04-0.01-0.09,0.02-0.16,0.1l-0.14,0.26c-0.3,0.48-0.78,0.6-1.55,0.46l-6.4-1.14
	c-0.46-0.08-0.74-0.13-1-0.26c-0.19-0.08-0.21-0.32-0.17-0.57l0.05-0.24c0.03-0.17,0.02-0.24-0.08-0.26l-0.31-0.05
	c-0.11-0.02-0.16,0.02-0.17,0.08c-0.03,0.14-0.08,0.73-0.28,1.8c-0.16,0.91-0.34,1.61-0.36,1.73c-0.02,0.09,0.04,0.12,0.15,0.14
	l0.29,0.05c0.09,0.02,0.13-0.03,0.14-0.1l0.06-0.31c0.02-0.14,0.21-0.2,0.67-0.11L191.8,135.99z M170.75,171.1v-3.41h-4.73v3.46
	l-30.4,0.38v-3.68l29.63-0.22v-0.55l-21.77,0.22v-0.66l20.62-0.38v-9.51l-0.3-0.3v9.37h-0.74c0,0-0.77-0.06-0.77-0.5
	c0-0.44,1.1-0.33,1.04-0.38c-0.06-0.05,0-8.58,0-8.58s-2.69-0.22-4.12,0.05v6.38h1.43v1.26h-0.44v-0.55l-29.25,0.44v1.15l27.65-0.16
	v0.77l-27.71,0.38v5.55l-28.42,0.22v-3.46l-1.49-0.71V157.3c0,0,0.17-3.13-2.09-3.02c0,0,0.77,0.33,0.83,1.98
	c0.05,1.65,0,11.6,0,11.6h-3.02v0.6h-1.43v3.62l-22.1,0.17v-3.68l20.56-0.17v-9.84c0,0-0.05-0.38,0.39-0.38
	c0.44,0,0.22,0.49,0.22,0.49v9.02l1.59-0.06v-8.41c0,0,0.22-1.38-2.48-1.38l-17.53,0.17v-0.66l5.18-0.12l0.04-37.37
	c0,0,0.05-0.33,0.27-0.33c0.22,0,0.33,0.28,0.27,0.55c-0.05,0.27,0.11,37.02,0.11,37.02s0.34,0.23,0.73,0.07
	c0.38-0.17-0.1-0.43-0.1-0.43l-0.13-37.21c0,0-0.17-0.49-1.26-0.33c0,0-0.12,0.33-0.17,0.99l-0.11,14.35h-0.55l0.06-15.34
	l-4.12-0.38v-0.5l5.93,0.39l-0.08-0.51l-6.03-0.54c-0.16-0.55-0.34-1.51-0.09-2.69l3.16,0.15c0,0,0.35-4.64,5.65-6.47l-8.21-0.94
	c0,0,0.05-1.27,0.88-2.09l34.97,4.34c0,0,0.55,0.44,0.11,0.88c-0.44,0.44-0.83,0.49-0.94,0.83l-9.9-1.1c0,0,2.53,2.42,2.81,6.76
	l3.96,0.22c0,0-0.95-0.93-0.88-2.69c0.05-1.48,1.37-2.25,2.42-2.25c1.16,0,2.37,0.94,2.37,2.69c0,1.65-1.16,2.36-1.16,2.36
	l1.43,0.33l0.44,1.27l-0.05-6.54c0,0-0.27-0.55-0.55-0.61c-0.28-0.05-0.44-0.49,0.6-0.93l-0.05-8.52l-1.98-2.25
	c0,0,4.34-6.49,5.06-8.9L86.3,87.81l2.14-2.8l28.48,3.79c0,0,1.82-2.42,3.96-7.75c0,0-0.59-0.31-0.6-0.56
	c-0.02-0.37,0.69-0.4,0.69-0.4s-0.01-0.98,0.41-0.97c0.39,0.01,0.49,0.96,0.49,0.96s0.63,0.01,0.64,0.34
	c0.01,0.24-0.39,0.56-0.39,0.56s1.62,3.97,3.38,7.05l21.55-3.35l6.82,17.87c0,0,2.16-3.14,3.93-6.54c0,0-0.52-0.19-0.52-0.49
	c0.01-0.24,0.69-0.33,0.69-0.33s0.1-1.3,0.46-1.27c0.32,0.03,0.48,1.23,0.48,1.23s0.69,0.06,0.72,0.38
	c0.03,0.24-0.48,0.42-0.48,0.42s0.28,4.56,7.37,16.16c0,0-0.05,0.88-2.8,1.38l0.05,0.99l1.54,0.05c0,0,6.44,6.1,8.14,7.31l2.2,0.66
	l0.44,48.6H170.75z M172.16,123.99c0,0,0.98,0.97,1.17,2.22l0.16-2.03L172.16,123.99z M172.94,127.46
	c-0.16-2.92-1.33-3.59-3.04-3.74c-1.72-0.16-2.61,1.8-2.61,1.8c-1.52-3.4-3.43-3.36-3.43-3.36l-0.04,1.64
	c2.56-0.75,2.6,2.84,2.6,2.84l1.49,0.16c0.74-2.97,3.04-2.23,3.04-2.23c1.37,0.2,1.48,2.81,1.48,2.81L172.94,127.46 M169.51,131.09
	c-0.04,0.43-0.27,0.39-0.27,0.39l0.01-3.08l-0.81,0.07l0.02,3.41l2.11,0.23v-3.47c-0.35-0.43-0.7,0-0.7,0v2.26
	C169.67,130.93,169.51,131.09,169.51,131.09 M170.8,127.34c0-1.83-1.21-1.95-1.21-1.95c-1.17,0.2-1.24,1.48-1.24,1.48L170.8,127.34z
	 M164.87,126.48c-0.09-1.95-0.98-1.83-0.98-1.83l-0.04,1.72L164.87,126.48 M165.69,122.55c0,0,1.29,0.98,1.72,1.99
	c0,0,0.62-0.9,1.68-1.25L165.69,122.55 M154.26,112.95c-0.2-0.31-9.44-22.74-9.44-22.74l-14.62,19.85v1.29l5.34,0.82l-0.04,0.59
	l-5.22-0.62v0.39l23.83,3.08v0.51l-23.83-2.85l-0.08,2.46c0,0,2.07-1.41,3.63-1.37c1.55,0.04,3,2.03,3,2.03s1.83-1.83,3.9-1.6
	c2.07,0.23,3.32,2.34,3.32,2.34s1.87-1.41,3.7-1.21c1.83,0.2,2.84,2.07,2.84,2.07s1.05-1.68,3.63-1.52
	c2.57,0.16,2.81,4.44,2.69,4.83c0,0,0.43,0.16,0.55,0.78l-0.04-5.5l-2.07-0.35C155.35,116.23,154.46,113.26,154.26,112.95
	 M126.85,90.8c0,0,3.12,5.54,5.77,8.66l-2.42,2.26v4.56l13.57-18.37L126.85,90.8z M108.32,115.68c0,0,0-1.99,1.16-1.95
	c1.18,0.04,0.9,1.44,0.82,1.68c-0.08,0.23-0.51,0.98-0.7,1.05c0,0,0.86,0.39,1.17-1.21c0.31-1.6-0.9-2.03-1.21-2.03l-0.08-0.27
	c0,0-1.95-0.31-1.63,2.77L108.32,115.68 M101.38,119.81l-0.04,0.47l11.35,1.09v-0.62L101.38,119.81z M100.16,120.46l-2.62-0.15
	l-0.05,0.56l3.32,0.24v-2.38l-0.67-0.03L100.16,120.46z M99.65,122.55l-0.03,1.61l0.89,0.09v-1.64L99.65,122.55z M97.57,122.43
	l-0.01,1.52l1.38,0.15v-1.58L97.57,122.43z M99.08,116.7c-0.04-0.23,0.47-3.78-2.14-3.78c-2.61,0-3.16,3.19-3.16,3.19L99.08,116.7
	 M96.82,122.35l-1.13-0.08v1.64l1.16,0.13L96.82,122.35z M93.27,118.14l0.04,0.36l2.89,0.23l0.03,1.55l-2.59-0.18l-0.01,0.53
	l3.08,0.23v-2.49L93.27,118.14z M93.97,122.08l-0.02,1.69l0.9,0.06l0.02-1.61L93.97,122.08z M93.36,124.84l0.02,1.88l8.04,0.12
	l0.02-1.55L93.36,124.84z M101.59,124.27l-0.02-2l-0.47,0.08l-0.02,1.8L101.59,124.27z M99.41,127.65l-1.35,0.01l0.01,10.91
	l1.36-0.06L99.41,127.65z M97.51,127.35h-0.59l0.02,11.27l0.59,0.04L97.51,127.35z M95.22,127.58h-1.32l0.11,10.61l1.29,0.04
	L95.22,127.58z M93.78,141.77l7.83-0.04l0.01-1.83l-7.81-0.15L93.78,141.77z M101.73,138.46l-0.12-11l-0.65,0.01l0.02,10.99H101.73z
	 M89.06,109.09c0.74,0.43,2.26,2.38,2.26,2.38c0.47-0.55,2.19-1.83,2.19-1.83L89.06,109.09z M82.07,115.18
	c0.59-2.07,1.99-3.12,3.36-3.59c1.36-0.47,3.12,0.7,3.12,0.7v-0.31c1.91,1.01,1.95,3.98,1.95,3.98l2.5,0.12
	c0.78-3.55,3.7-4.05,4.29-4.09c0.59-0.04,2.3,1.4,2.3,1.4c-0.27-0.74-1.37-1.4-1.37-1.4c3.2,0.55,3.16,4.95,3.16,4.95l1.48-0.08
	c0.12-1.95-0.62-4.21-2.73-5.85c-2.1-1.64-5.1-0.74-5.1-0.74c0.43,0.35-0.08,0.74-0.08,0.74c-0.89,0-3.27,2.34-3.27,2.34
	c0.19-1.21,2.66-2.85,2.66-2.85c-1.14,0.2-2.81,2.11-2.81,2.11c-0.51,0.27-0.94-0.08-0.94-0.08c-1.56-2.89-4.05-3.16-4.05-3.16
	c-6.28,2.14-5.97,5.62-5.97,5.62L82.07,115.18 M90.3,126.45l0.02-1.75l-7.67-0.48l-0.03,2L90.3,126.45z M88.47,127.34h-1.48
	l0.04,10.37l1.48,0.04L88.47,127.34z M86.29,126.86l-0.83-0.02l0.04,11.31l0.82-0.04L86.29,126.86z M84.47,127.42h-1.29l0.07,10.26
	l1.29-0.02L84.47,127.42z M89.96,120.52l-0.01-1.13c0,0-0.55-0.62-0.51-1.79h-0.47l-0.04,2.3l-2.62-0.11l0.03,0.56L89.96,120.52z
	 M88.74,121.8l0.01,1.44l1.17,0.12l0.01-1.44L88.74,121.8z M87.69,121.83l-1.28-0.12l-0.04,1.34l1.35,0.09L87.69,121.83z M88.12,116
	c0.08-0.66-0.66-3.47-2.53-3.35c-1.87,0.12-2.61,2.69-2.61,2.69L88.12,116z M85.54,122.99l0.03-1.37l-1.01-0.05l-0.01,1.36
	L85.54,122.99z M82.47,120.05l2.99,0.2l0.01-2.71l-2.89-0.37l-0.01,0.64l2.37,0.3l0,1.52l-2.42-0.15L82.47,120.05z M83.43,122.84
	l0.03-1.43l-0.92-0.07l0.02,1.39L83.43,122.84z M90.58,141.96v-2.18h-7.95v2.15L90.58,141.96z M87.12,143.32l-0.03,10.47h1.32
	l0.03-10.47H87.12z M86.01,142.93l-0.8-0.03l0.01,11.36l0.85,0.01L86.01,142.93z M84.6,143.39l-1.29-0.03l0.04,10.5l1.29,0.03
	L84.6,143.39z M90.69,156.91l-0.04-1.44l-7.68,0.04l0.04,1.48L90.69,156.91z M93.08,142.94l0.82,0.03l0.04,10.27
	c0,0,1.64-2.73,3.7-3.05c2.07-0.31,4.01,0.33,4.01,0.33l-0.03-8.25L93,142.32l-0.27-23.13l-2.11-0.04l-0.04,18.95
	c0,0,0.7,0.35,0.74,0.66v3.55c0,0-0.15,0.39-0.55,0.43v10.18c0,0,0.66,3.19,0.59,4.09l1.79-0.08L93.08,142.94z M95.92,157.04
	l-0.05-0.5l-1.97,0.01v0.51L95.92,157.04z M100.99,152.11c2.38,0.51,1.72,4.01,1.72,4.01l1.17-0.08c0,0,0.23-5.23-4.56-5.19
	c0,0-2.88,0.78-3.86,1.98c-0.98,1.21-0.82,3.24-0.82,3.24l1.09-0.04c0,0-0.39-3.67,4.37-3.47c0,0,0.27-0.43-1.56-0.31
	C98.53,152.26,98.61,151.6,100.99,152.11 M112.7,168.08l-0.01-10.55l-10.49,0.12l0.08,10.3l1.67,0.04v-9.75h0.51l0.02,9.79
	L112.7,168.08z M113.16,156.79l-0.39-34.87l-10.53-0.86l0.12,30.14c0,0,2.11,0.98,2.22,5.19h-1.94l-0.04,0.47L113.16,156.79z
	 M128.88,101.02c-8.39-0.98-14.59,0.35-14.59,0.35c0.19,0.12,1.17,0.62,1.56,0.23c0.39-0.39,1.76-0.55,2.23-0.27
	c0.47,0.27,1.95-0.16,1.95-0.16s1.48-0.23,1.91-0.04c0.87,0.39,1.09,0.23,1.44-0.04c0.35-0.27,1.87-0.12,2.45,0.27
	c0.59,0.39,0.51,0.39,1.06,0.08c0.55-0.31,1.94-0.04,1.94-0.04L128.88,101.02 M115.23,100.39l-0.01-0.96l-0.74,0.09l-0.06,1.02
	L115.23,100.39z M116.11,100.36l0.91-0.13v-0.97l-0.94,0.11L116.11,100.36z M117.81,100.12l0.72-0.03v-0.98l-0.75,0.06
	L117.81,100.12z M119.16,100.09l0.98-0.09l0.03-0.89l-1.05,0.08L119.16,100.09z M121.74,99.93l0.04-0.87l-1.05,0.03l-0.05,0.89
	L121.74,99.93z M123.56,100l0.01-0.97l-0.98-0.01l-0.03,0.98H123.56z M124.7,100l-0.03-0.92l-0.52-0.05l-0.02,0.94L124.7,100z
	 M115.93,102.38c-0.43,0.19-2.14-0.2-2.14-0.2l-0.16,0.94c0.74,0.08,1.36,1.72,1.36,1.72l0.78-0.12c0,0-0.04-2.03,1.09-2.07
	c1.12-0.04,1.52,1.52,1.52,1.52h0.94c0,0,0.23-1.68,1.4-1.72c1.17-0.04,1.41,1.68,1.41,1.68l0.82,0.04c0,0-0.07-1.64,1.4-1.6
	c1.48,0.04,1.41,1.68,1.41,1.68l0.7,0.04c0-0.39,0.31-1.17,0.93-1.44c0.63-0.27,1.52,0.43,1.52,0.43v-1.13
	c-0.98-0.39-1.17-0.04-2.26,0.19c-1.09,0.23-1.21-0.51-1.76-0.66c-0.55-0.16-1.33,0.2-2.07,0.51c-0.74,0.31-0.27-0.23-1.09-0.43
	c-0.82-0.19-2.07,0.23-2.62,0.43c-0.54,0.2-1.16-0.16-1.75-0.2C116.78,101.96,116.36,102.19,115.93,102.38 M113.98,110.46l0.47-0.16
	v-4.44h-0.35L113.98,110.46z M114.09,105.19c0,0,0.28-0.04,0.35-0.23c0,0,0.28-0.59-0.39-0.59L114.09,105.19z M128.91,112.29
	c0,0-7.84-2.46-14.97-0.04l-0.04,0.39c0,0,7.44-2.3,15.01,0.12V112.29 M115.77,109.83l0.01-4.22l-0.68,0.06l-0.03,4.48
	L115.77,109.83z M117.68,105.15c0,0-0.58,0.08-0.74,0.24l-0.03,4.25l0.77-0.2V105.15 M117.13,103.71c0,0-0.27,0.43-0.19,0.86
	l0.62-0.15C117.56,104.41,117.76,103.67,117.13,103.71 M118.41,109.49l0.83-0.12l0-4.44c-0.2,0.04-0.86,0.11-0.86,0.11
	L118.41,109.49z M120.56,104.14c0.16,0,1.02-0.08,1.02-0.08c-0.16-0.97-0.89-0.78-0.89-0.78
	C120.61,103.44,120.56,104.14,120.56,104.14 M121.55,104.84h-0.9v4.32l0.92-0.09L121.55,104.84z M122.14,109.16
	c0.19,0,0.86,0.06,0.86,0.06l0.02-4.41c-0.15-0.04-0.9,0-0.9,0L122.14,109.16z M123.61,104.92l-0.02,4.36l0.66,0.03l-0.03-4.36
	L123.61,104.92z M124.04,103.32c0,0-0.53-0.03-0.32,0.77l0.48,0.03C124.19,104.12,124.35,103.37,124.04,103.32 M126.46,109.75
	l0.01-4.71l-0.67-0.01v4.72H126.46z M127.35,104.61c0,0-0.04-0.7-0.2-0.74c0,0-0.27,0.31-0.19,0.55L127.35,104.61z M127.35,105.27
	l-0.39-0.04v4.72l0.42-0.02L127.35,105.27z M128.91,113.58c0,0-8.66-2.77-15.13,0.23l0.16,28.74c0,0,6.86-2.23,15.13-0.43
	L128.91,113.58 M129.15,143.29c0,0-8.19-2.49-15.06,0.43v12.9c0,0,3.51,0.82,15.13,0.51L129.15,143.29 M129.41,167.83l-0.23-10.14
	c-8.7,0.04-15.25-0.35-15.25-0.35v0.39c2.84,0.51,10.26,0.35,10.26,0.35s0.51-0.47,0.66,0.04c0.16,0.51-0.78,0.62-0.78,0.62
	c-2.22,0.27-10.22-0.23-10.22-0.23l-0.01,9.61l0.74,0.03l0.01-9.09l0.53,0.02l0.02,9.02l3.62-0.16l-0.03-5.4l0.82-0.02l0.04,5.34
	L129.41,167.83z M113.31,98.91c0,0,9.01-1.37,16.57-0.23c0,0-6.44-9.36-8.54-14.74C121.35,83.94,116.78,93.84,113.31,98.91
	 M130.16,118.38l0.35,0.12c0,0,0.66-2.11,2.14-2.73c0,0,2.1-0.39,2.96,0.82c0.86,1.21,0.63,2.58,0.63,2.58l1.24,0.2
	c0,0,0.2-2.73,2.58-3.08c2.37-0.35,3.51,1.6,3.43,3.66l1.02,0.29c0,0,1.05-2.67,2.14-2.94c1.09-0.27,3.12-0.16,3.43,3.24l1.13,0.16
	c0,0,0.12-2.18,2.11-2.77c1.99-0.58,2.38,2.62,2.38,2.85h0.66c0,0-0.11-3.67-2.45-3.78c-2.34-0.12-3.2,2.69-3.2,2.69
	s-0.98-3.39-3.35-3.39c-2.38,0-3.24,2.53-3.24,2.53s-1.09-3.78-3.43-3.66c-2.34,0.12-3.74,2.49-3.78,3.04c0,0-0.9-3.04-3.12-3.35
	c-2.23-0.31-3.48,1.87-3.55,2.46L130.16,118.38z M136.21,128.59l-0.62,0.62v8.03l1.79,0.13l-0.08-16.75l-1.26-0.24l-0.04,1.28
	l-0.5-0.07l-0.05,3.32l0.73,0.17L136.21,128.59z M130.9,125.55l0.08,2.5l4.68,0.5l0.04-2.3L130.9,125.55z M132.46,134.95
	c0,0-0.51-0.08-0.35-1.75c0,0-0.28-0.08-0.28-0.39l-0.07-4.06h-0.7l0.03,8.25l2.91,0.09l-0.01-7.48c0,0,0-0.82-1.29-0.74
	L132.46,134.95 M134.12,121.03l-1.11-0.26l0,3.76l1.09,0.19L134.12,121.03z M133.94,119.31c0.16-3-1.91-2.46-1.91-2.46
	c-0.74,0.27-1.05,1.87-1.05,1.87L133.94,119.31z M130.86,120.36v1.35l0.96,0.29v2.37l0.46,0.07l-0.02-3.7L130.86,120.36z
	 M130.31,138.02l-0.03,1.34l25.35,1.05c-0.16-0.12-0.86-1.07-0.86-1.07L130.31,138.02z M142.6,125.82c0,0,0.78-0.08,0.78,0.9v2.61
	l-0.59,0.55l0.2,7.69l1.48,0.12l-0.04-16.17l-1.91-0.4L142.6,125.82 M138.07,126.52v2.26l4.8,0.43v-2.07L138.07,126.52z
	 M139.67,129.49l-0.31,5.38c-0.16-1.25-0.47-1.64-0.47-1.64l-0.16-3.86l-0.7-0.04l0.12,8.11l2.92,0.16v-8L139.67,129.49z
	 M141.4,125.65l0-3.96l-0.86-0.19l-0.01,4.04L141.4,125.65z M141.49,120.38c0.03-3.05-1.78-3.18-1.78-3.18
	c-1.52,0.31-1.56,2.26-1.56,2.26L141.49,120.38z M138.04,120.79l-0.02,1.59c0.33,0.27,0.28,0.17,1.21,0.61l0.02,2.42l0.77,0.07
	l0.01-4.14L138.04,120.79z M148.21,121.03c0.12-1.93-1.01-2.46-1.01-2.46c-1.79-0.41-2.14,1.67-2.14,1.67L148.21,121.03z
	 M147.51,122.24l0.02,4.04l0.51,0.05l0.02-3.94L147.51,122.24z M145.09,123.24c0,0,1.06,0.33,1.14,0.64l-0.02,2.29l0.82,0.07
	l0.05-4.09c0,0-0.7-0.15-1.98-0.46L145.09,123.24 M145.06,129.45l4.41,0.55v-2.26l-4.39-0.62L145.06,129.45z M149.89,122
	c0,0,0.04,0.78-0.12,0.98l-0.39,0.08v3.43c0,0,0.43,0.2,0.43,0.39v3.28l-0.35,0.43l-0.03,7.31l1.62,0.13l-0.12-16.21
	C150.95,121.81,150.13,121.14,149.89,122 M145.84,133.78v-3.63l-0.66-0.04l0.08,7.76l2.61,0.08l-0.04-7.65l-1.13-0.12l-0.11,2.22
	c0,0-0.2,0.31-0.39,0.04l-0.12,1.37L145.84,133.78z M154.02,138.23l-0.05-7.23l-1.19-0.15l-0.12,2.77
	c-0.51,0.23-0.59,0.74-0.59,0.74l-0.16-3.62l-0.34-0.03l-0.05,7.4L154.02,138.23z M155.09,128.44l-3.68-0.55l0.01,2.23l3.63,0.31
	L155.09,128.44z M153.87,121.47c-0.12-2.38-1.55-2.16-1.55-2.16c-0.74,0.32-0.63,1.56-0.63,1.56L153.87,121.47z M153.21,122.47
	l-0.04,4.41l0.62,0.1l0.04-4.31L153.21,122.47z M151.65,122l0.02,1.96l0.56,0.29l-0.03,2.56l0.53,0.07l0.02-4.53L151.65,122z
	 M137.01,163.07l-1.19-1.02v-7.02c0,0,0.16-4.45-2.11-4.41c0,0,1.21,1.17,1.25,2.22v9.4l-4.36,0.02v0.84L137.01,163.07z
	 M146.85,163.03l-1.21-1.05V151.6c-0.04-3.04-2.3-2.81-2.3-2.81c1.48,0.66,1.44,1.76,1.44,1.76l0.04,11.47l-5.07-0.02v-8.05
	l-1.94,0.03l-0.01,9.13L146.85,163.03z M155.08,162.95l-0.31-0.47l-0.12-9.08c-0.04-2.77-1.44-2.73-1.44-2.73
	c0.39,0.08,0.78,1.64,0.78,1.64l0.07,9.63h-4.35l-0.02-7.8l-1.8,0.02l0,8.87L155.08,162.95z M155.82,150.16c0,0,0.31,0,0.04,0.24
	c0,0-0.43,0.15-0.43,0.51c0,0,0.55,1.67,0.47,2.38l0.82,0.01l-0.05-3.87c0,0-0.7-2.3-1.52-1.4c0,0-0.55-1.6-1.05-0.78
	c0,0-0.27,0.19-0.31,0c0,0,0.2-0.63-0.23-0.63c0,0-1.56-0.35-3.35,0.66c0,0-0.16,1.01-0.47,1.6c0,0-0.47,0.2-0.86,0
	c0,0-0.15-0.16,0.39-0.31c0,0,0.39-0.7,0.23-1.21c0,0-0.55-0.16-0.7-0.27c0,0,0.04,1.13-0.31,1.6c0,0-0.08-1.95-0.5-2.38
	c-0.43-0.43-0.86-0.59-1.29-0.23c0,0-0.11-0.93-0.74-1.02c-0.62-0.08-0.82-0.19-1.25,0.66c0,0,0.2-1.37-0.62-1.29
	c-0.82,0.08-1.25-0.11-1.52,0.71c0,0-0.43-0.71-1.4-0.32c-0.98,0.39-0.9,0.86-0.94,1.09c0,0-0.58-0.63-1.67,0.7
	c0,0-0.16,0.35-0.62,0.16c-0.47-0.19-0.58,0.35-0.58,0.82c0,0.47-0.08,0.9-0.31,0.86c-0.23-0.04-0.08-1.44-0.16-1.64
	c-0.08-0.2-0.35-0.47-0.55-0.12c-0.19,0.35-0.16-0.55-0.9-0.74c0,0-0.82-0.39-0.94,0.47c0,0-0.04-0.55-1.29-0.55
	c-1.25,0-1.44,0.7-1.48,1.09c-0.04,0.39-0.31-0.7-0.7-0.35c0,0-0.43,0.43-0.7,0.43l-0.04,3.78c0,0,0.47,0.08,0.74,0.51
	c0,0,0.15-0.47-0.2-0.93c0,0,0.23,0.27,0.86,0.15c0.63-0.11,1.01-0.62,0.43-1.76c0,0-0.35-0.39-0.2-0.55
	c0.16-0.16,0.43,0.16,0.43,0.16s0.47,1.32,1.05,1.29c0.59-0.04,0.55-0.66,0.7-0.94c0.16-0.27,0.12-0.12,0.23-0.12
	s0.08,0.27,0.08,0.27s-0.19,0.82,0.39,0.82s0.7-0.66,0.7-0.78c0-0.12,0.47-0.43,0.55-0.31c0.08,0.12-0.16,0.43-0.16,0.43
	s-0.66,1.17,0.11,1.37c0.78,0.19,1.09-0.39,1.29-0.55c0.19-0.16,0.19-0.08,0.35,0c0.16,0.08-0.08,0.24-0.08,0.24l-0.74,0.82
	c0,0,0.62,0.55,0.82,1.99l2.08,0.03c0,0-0.15-4.05,2.64-4.94c0,0-0.16-0.94,0.27-1.21c0.43-0.27,0.12,0.66,0.16,0.94
	c0,0,1.83,0.39,2.5,0.16c0,0,0.39-0.08,0.62-0.43c0,0-0.19,0.9,0.08,0.98c0.27,0.08,0.62,0.27,1.25-0.39c0,0,0.23,0.04,0.08,0.39
	c0,0-0.51,0.55-0.35,0.89c0,0,0.87,0.34,0.96,3.8l1.73,0.02c0,0,1.05-1.48,0.47-3.12l0.78,0.55c0,0,0.78-0.66,1.05-0.7
	c0,0,0-0.89,0.16-0.97c0.15-0.08,0.31,0.63,0.35,0.9c0,0,0.51,0.12,0.62,0.04c0.12-0.08,0.47-1.4,0.62-1.68
	c0.16-0.27,0.31,0.12,0.2,0.47c0,0-0.35,1.29,0.11,1.32c0.48,0.04,0.48-0.62,0.48-0.62s0.23-0.12,0.19,0.39c0,0-0.19,0.82,0.16,0.86
	C154.85,150.59,155.63,150.35,155.82,150.16 M130.28,146.26c0,0,1.28-1.13,3.35-1.33c2.06-0.19,3.36,0.98,3.36,0.98
	c1.09,0.27,1.13,0.04,1.13,0.04c1.68-2.11,4.72-2.18,4.72-2.18c4.53,0.04,6.01,2.93,6.01,2.93c0.31,0.19,1.17,0.12,1.17,0.12
	c0.16-0.16,0.97-0.94,3.35-0.82c2.38,0.12,3.43,2.18,3.43,2.18l-0.19-5.38l-26.37-0.9L130.28,146.26z M157.2,154.16l-1.3-0.02
	l-0.01,8.73l1.29,0.01L157.2,154.16z M157.5,122.74c0,0-0.43,0.39-0.71,0.51l-0.05,15.63c0,0-0.65,0.05-0.89-0.3v-15.4
	c0,0,0.05-0.35,0.27-0.43c0,0,0.82,0.12,0.9-0.27c0.08-0.39-0.07-0.51-0.43-0.55l-0.98-0.08l-0.12,9.16l-0.27,0.04v7.53
	c0,0,0.97,1.79,2.11,2.38l-0.08,0.16l-26.99-1.25v0.43l27.2,1.24L157.5,122.74z M159.14,115.33c0,0,0.47-0.62,0.55,0.08l-0.02,2.92
	l0.92,0.02v-2.89c0,0,0.08-0.43,0.39-0.47c0.31-0.04,0.51,0.31,0.51,0.31v-1.41c0,0-2.09-0.47-2.8-0.23l-0.01,4.21l0.45,0.3
	L159.14,115.33 M162.45,120.56c-1.52-1.21-3.78-0.39-3.78-0.39l-0.04,21.36l3.98,0.28L162.45,120.56 M162.83,144.99l-0.41,0.02v9.98
	l-2.11-0.06l0.01-7.23h1.72l0.08-0.66h-1.68l-0.16-1.76l-0.51-0.7l2.88-0.16l-0.04-0.85c0,0-2.1-0.66-3.75-0.16l0.03,12.02
	c0,0,3.13-0.2,3.87-0.05L162.83,144.99z M160.89,154.56l0.89,0.02l-0.03-2.21l-0.86,0.01V154.56z M161.63,151.71v-3.54h-0.77
	l0.03,3.55L161.63,151.71z M156.41,111.04c1.68-0.04,7.8,0.7,7.8,0.7c-3.78-5.97-6.24-13.57-6.24-13.57
	c-0.16,0.27-3.86,6.94-3.86,6.94L156.41,111.04 M163.62,116.23l0.19,4.76l7.02,1.6L163.62,116.23z M163.64,131.3l1.23,0.13v-3.42
	l-0.48-0.12l0.02,1.86l-0.48-0.12v-1.8l-0.28-0.06L163.64,131.3z M165.92,166.3l-0.04-8.15c0,0-0.03-2.5-1.44-2.57
	c0,0,0.54,1.13,0.54,3.2l0.04,7.52L165.92,166.3z M166.86,158.86l1.29-0.08c0,0,0.81-3.44-0.93-5.58c-1.06-1.29-3.24-1.41-3.24-1.41
	v1.13c0,0,2.57,0.82,2.69,1.99L166.86,158.86z M173.64,167.04l-0.15-36.69l-1.37-0.39l-0.01,2.84c0.16,0.08,0.24,0.16,0.24,0.16
	l-0.12,1.41c-0.78-1.48-4.33-1.48-4.33-1.48v-3.28h-0.58c-0.24,0-0.9,0.04-0.86-0.38c0.04-0.43,0.38-0.35,0.38-0.35
	c-0.31-0.16-0.65-0.13-0.65-0.13l0.04,4.24c-0.82-0.55-2.55-0.4-2.55-0.4l0.07,18.54c4.33,0.47,4.8,4.51,4.8,4.51l-0.04-9.01
	l3.66,0.19v11.54l1.06,1.17l-6.28,0.23l-0.12,6.63l1.47,0.03l-0.03-6.44l4.26,0.02l-0.05,0.73l-3.43,0.03l0.01,6.26L173.64,167.04z
	 M171.01,158.3l0.03-11.04l-1.34-0.11l-0.01,11.15H171.01z M149.89,105.97l-12.55-1.95l0.04-0.31l1.64,0.2c0,0,0.86-4.8,5.69-4.53
	c4.84,0.27,4.06,5.62,4.1,5.93c0,0-0.04,0.2,1.09,0.35V105.97z M145.12,104.8c0.04-0.39,0.76-2.1-1.18-2.53
	c-1.96-0.43-2.27,1.95-2.27,1.95L145.12,104.8 M148.26,105.08c0,0-0.16-4.91-3.35-5.15c0,0,0.04,0.27-0.12,0.31
	c0,0-4.41,0.08-4.52,3.55l0.86,0.16c0,0,0.5-2.49,3.27-2.61l-0.04-0.27c0,0,2.85-0.82,2.89,3.86L148.26,105.08z M137.53,104.61
	l0.08-0.31l12.17,1.95l-0.08,0.35L137.53,104.61z M154.53,115.21l-3.16-0.39v-0.58l3.2,0.55L154.53,115.21z M150.91,114.79
	l-14.97-1.95l0.12-0.7c0,0,0.92,0.25,1.11-0.02v-6.02c0,0,0.06-1.2,1.42-1.09c1.27,0.11,1.17,1.24,1.17,1.24v1.22
	c0,0,0.51,0.21,0.46,0.74c-0.03,0.39-0.39,0.27-0.39,0.27l-0.01,3.82l1.2,0.18l0.03-3.88c0,0-0.55-0.08-0.51-0.59
	c0.03-0.36,0.51-0.31,0.51-0.31v-1.45c0,0,1.29-0.89,4.72-0.03c0,0,0.55,0.35,0.55,0.59v1.68c0,0,0.53,0.09,0.52,0.48
	c-0.01,0.33-0.65,0.29-0.65,0.29l-0.07,3.79l1.37,0.19l0.01-3.79c0,0-0.37-0.06-0.33-0.49c0.02-0.2,0.35-0.2,0.35-0.2l0.16-1.28
	c0,0,0.51-0.66,1.2-0.51c0.7,0.16,0.98,0.55,0.98,0.98c0,0.43-0.01,1.11-0.01,1.11s0.3,0.12,0.26,0.43
	c-0.04,0.31-0.36,0.22-0.36,0.22l0,3.97c0,0,0.12,0.63,1.17,0.55V114.79z M138.78,108.36l-0.96-0.12l-0.03,3.79l0.95,0.12
	L138.78,108.36z M138.89,107.37c0,0,0.15-1.85-0.55-1.91c-0.67-0.05-0.58,1.76-0.58,1.76L138.89,107.37 M141.82,106.4
	c-0.55,0.04-0.39,1.33-0.39,1.33l0.81,0.09C142.24,107.35,142.37,106.36,141.82,106.4 M142.26,112.62l-0.02-3.91l-0.93-0.09
	l0.03,3.88L142.26,112.62z M145.1,109.01l-1.49-0.15l0.03,3.91l1.46,0.21V109.01z M145.18,108.23c-0.01-0.68,0.16-1.62-1.02-1.68
	c-0.77-0.04-0.57,1.51-0.57,1.51L145.18,108.23 M148.9,109.59l-0.95-0.11l-0.01,3.79l0.94,0.13L148.9,109.59z M148.93,108.9
	c0-0.2,0.06-1.63-0.17-1.61c-0.84,0.1-0.75,1.5-0.75,1.5L148.93,108.9 M118.23,127.11c-2.34-0.62-3.59,0.51-3.59,0.51l-0.04-11.39
	c1.29-1.01,3.66-0.89,3.66-0.89L118.23,127.11 M117.24,123.62c0,0-1.12-0.06-1.75,0.57l-0.03,1.91c0,0,1.28-0.27,1.75-0.23
	L117.24,123.62z M117.41,120.71c-2.14-0.08-2.01,0.67-2.01,0.67l-0.01,1.98c0.27-0.2,2.02-0.74,2.02-0.74V120.71z M115.31,119.83
	c0,0,1.4-0.41,2.14-0.48l0.04-2.05c0,0-1.83,0.1-2.14,0.61L115.31,119.83z M124.62,126.8c0,0-2.69-0.66-5.15,0.12l-0.02-11.8
	c0,0,2.76-1.23,5.14-0.06L124.62,126.8 M124.04,123.41c-0.7-0.16-3.23,0.12-3.23,0.12v2.07h3.25L124.04,123.41z M123.92,122.52
	l-0.01-2.78c-1.4-0.47-3.08,0.12-3.08,0.12v2.81L123.92,122.52z M123.99,116.64c-1.37-0.27-3.22,0-3.22,0l0.04,2.4l3.16-0.08
	L123.99,116.64 M128.72,127.19c-1.21-1.17-3.59-0.47-3.59-0.47l-0.08-11.78c3.9,0.12,3.62,1.37,3.62,1.37L128.72,127.19
	 M127.9,123.92l-1.25-0.02l-0.07,0.02l0.04,1.64c0.43,0,1.32,0.19,1.32,0.19L127.9,123.92z M125.87,118.79
	c0.2,0.04,1.06,0.09,1.06,0.09v-2.03c-0.16-0.16-1.05-0.08-1.05-0.08L125.87,118.79z M126.88,119.68c-0.23-0.19-1.09-0.05-1.09-0.05
	l0.08,3.35l1.04,0.02L126.88,119.68 M114.68,128.16c1.79-0.59,3.58-0.47,3.58-0.47l0.2,12.67c-1.41-0.47-3.71,0.62-3.71,0.62
	L114.68,128.16 M115.49,131.79c0,0,0.97,0.16,1.12-0.12l-0.03-3.19c0,0-0.43-0.16-1.09,0.2V131.79z M117.84,132.45
	c0,0-1.9,0.13-2.29,0.59l-0.01,2.84l2.3-0.16V132.45 M117.87,136.33c-1.75-0.12-2.34,0.34-2.34,0.34l-0.02,2.44l2.32-0.25
	L117.87,136.33z M117.99,131.44l-0.12-1.25l-0.82,1.13L117.99,131.44z M124.74,140.64c-2.66-0.86-5.34,0.04-5.34,0.04v-12.87
	c2.59-0.52,5.37,0.02,5.37,0.02L124.74,140.64 M120.72,130.78l3.39,0.08l0.02-1.66l-2.91-0.06l-0.51-0.39V130.78z M120.61,135.42
	c1.09-0.24,3.43-0.04,3.43-0.04l-0.04-3.51c-1.87-0.51-3.39,0.08-3.39,0.08V135.42z M120.59,138.59l3.57-0.06l-0.04-2.3l-3.51-0.04
	L120.59,138.59z M125.56,127.7c2.92-0.16,2.92,0.55,2.92,0.55l0.12,12.95c-0.86-0.78-3-0.59-3-0.59L125.56,127.7 M126.18,130.85
	l0.62,0.16c0,0-0.16-0.86-0.62-0.94V130.85z M126.89,136.62c-0.31-0.62-0.78-0.35-0.78-0.35l0.04,2.42l0.74,0.03V136.62z
	 M126.11,135.69c0,0,0.66-0.04,0.78,0.16l-0.04-3.78c0,0-0.55-0.23-0.82-0.04L126.11,135.69 M114.91,143.8
	c1.48-0.86,3.79-0.7,3.79-0.7v12.87c-0.98,0.04-3.75-0.44-3.75-0.44L114.91,143.8 M117.88,143.84c-0.62-0.39-2.3,0.35-2.3,0.35
	l0.03,1.88l2.23,0.22L117.88,143.84 M115.46,151.21l2.5,0.35l-0.05-3.37l-2.44-0.3V151.21z M115.6,154.75c0,0,1.49,0.43,2.39,0.48
	l-0.08-2.46l-2.26-0.31L115.6,154.75 M119.47,143.06c2.46-0.82,5.26-0.04,5.26-0.04l0.05,12.92c-2.27,0.89-5.2,0.02-5.2,0.02
	L119.47,143.06z M120.84,154.33c0,0,2.32,0.25,3.42-0.02l-0.02-6.22l-3.43-0.08L120.84,154.33 M120.61,146.03l3.71,0.05l-0.05-2.12
	c-1.21-0.66-3.66-0.04-3.66-0.04V146.03z M128.56,156.32c-0.86,0.16-2.81-0.16-2.81-0.16v-13.03c2.58-0.31,2.92,0.67,2.92,0.67
	L128.56,156.32 M127.9,147.65l-1.49,0.33v3.52l1.49-0.21V147.65z M126.38,145.99l1.44-0.27v-1.79c0,0-0.6-0.44-1.42-0.2
	L126.38,145.99z M126.38,154.56c0.31,0.19,1.39-0.2,1.39-0.2l0.03-2.39l-1.42,0.2V154.56 M116.05,159.16l0.03,4.88l-0.59-0.04
	l-0.03-4.84H116.05z M121.09,159.85l0.54-0.09l-0.01,7.32l-0.51-0.16L121.09,159.85z M138.89,164.62v-0.57l14.2-0.28v0.66
	L138.89,164.62z M105.59,158.03l6.51-0.16l-0.04,0.67l-6.47-0.08V158.03z M111.87,153.7l-6.36-0.08v-11.66l6.36,0.12V153.7z
	 M106.33,142.79l0.02,1.05l4.18,0.02l0.01-1.04L106.33,142.79z M106.29,145.21l4.67,0.04l-0.02-0.54l-4.65,0V145.21z M107.92,152.17
	l-0.03-6.11l-1.43-0.02l0.03,6.14L107.92,152.17z M109.25,152.86l-0.02-6.89l-0.67,0.02l-0.02,6.83L109.25,152.86z M111.13,146.03
	l-1.29,0.04l0.02,5.97l1.25,0.02L111.13,146.03z M91.67,158.23l-0.04,0.54l-14.35,0.08l0.04-0.59L91.67,158.23z M111.6,141.54
	l-6.32-0.08v-0.66l6.39,0.12L111.6,141.54z M112.14,154.29c0,0,0.82,0.5,0.16,1.05c0,0-0.43,0.15-0.47-0.55l-5.99-0.03
	c0,0-0.02,0.54-0.49,0.5c-0.47-0.04-0.2-0.94,0.04-1.02L112.14,154.29 M112.14,140.33c-0.55,0-0.47-0.51-0.47-0.51l-6.71-0.08
	c0,0.08-0.12,0.58-0.55,0.55c-0.43-0.04-0.47-0.35-0.47-0.35l-0.08-8.66c0,0,0.16-5.69,4.45-5.62c4.29,0.08,4.17,5.58,4.17,5.58
	l-0.04,8.58C112.46,139.82,112.69,140.33,112.14,140.33 M107.27,126.45c0,0-2.77,2.66-2.23,5.23c0,0,1.02-3.98,3.16-3.82
	c0,0,1.09,0,1.67,0.51l-0.2-0.59c0,0,1.71,1.09,2.15,4.13h0.31c0,0,0.08-5.96-3.74-5.81c0,0-1.02,0.04-1.76,0.2L107.27,126.45
	 M111.36,131.79c0,0,0.12-0.59-2.62-0.78c0,0-0.04-1.87,0.59-2.41c0,0-0.86-0.16-1.09,0.62c0,0-0.27,1.63-0.31,1.83
	c0,0-2.26,0.12-2.38,0.55L111.36,131.79z M110.39,132.87l-1.67,0.01l0.01,5.3l1.68-0.04L110.39,132.87z M107.92,132.95l-1.74-0.03
	v5.3l1.76-0.01L107.92,132.95z M107.5,130.39l0.08-1.64c0,0-0.87,0.47-1.41,1.6L107.5,130.39z M111.93,139.19l0.01-6.31l-0.51,0.03
	l0.01,5.87l-6.16,0.07l0.01-6.11l-0.6-0.02l0.01,6.55L111.93,139.19z M95.15,149.56l-0.01-6.69l6.08-0.08l0.03,6.62l-0.52-0.02
	l-0.02-5.86l-0.66-0.04l0.02,3.23l-0.9,0.02l0.02-3.25l-3.43-0.16v6.24L95.15,149.56z M161.79,129.44c-0.2-0.27-1.79-0.41-1.79-0.41
	l-0.01-8.52c0.78-0.43,1.79,0.19,1.79,0.19L161.79,129.44 M161.48,126.78c0,0-0.74-0.26-0.86-0.06v1.72c0,0,0.78-0.04,0.86,0.12
	V126.78z M161.48,124.07c0,0-0.47-0.23-0.78,0.04v2.03l0.77,0.1L161.48,124.07z M160.54,122.74l0.92,0.09v-1.61
	c0,0-0.49-0.45-0.92-0.13V122.74z M160.07,131.52c0,0,1.48-0.19,2.11,0.59l-0.04,8.22c0,0-1.28-0.26-2.05-0.26L160.07,131.52
	 M160.84,136.99l0.01,2.14c0,0,0.63,0.26,0.9,0.18l-0.01-2.18L160.84,136.99z M169.4,161.01l0.48,0.03l-0.02,5.53l-0.47-0.04
	L169.4,161.01z M165.41,146.49l0.02,4.17l-0.51-0.03l0.02-4.19L165.41,146.49z M165.92,146.49l0.51-0.08l-0.02,4.85l-0.49-0.17
	V146.49z M166.12,145.42l-2.05-0.08l-0.02-11.09l2.07,0.17V145.42z M164.59,136.83l0.75,0.03l-0.02-1.95h-0.72L164.59,136.83z
	 M164.65,137.81l0.03,3.3h0.78l-0.03-3.32L164.65,137.81z M165.58,142l-0.89-0.04l-0.01,2.15l0.9,0.08L165.58,142z M170.21,134.87
	c0,0,1.76-0.51,1.99,0.55l0.12,10.45l-4.15-0.27l-0.03-11.08c0,0,1.17-0.27,1.56,0.47l-0.02,10.19l0.69,0.07L170.21,134.87
	 M169.31,142.59l-0.6-0.09v2.16l0.6,0.07V142.59z M169.37,141.54l-0.03-3.31l-0.73-0.12l0.02,3.26L169.37,141.54z M169.4,137.36
	l-0.11-1.87c0,0-0.27-0.72-0.66-0.1v1.82L169.4,137.36z M171.19,135.57c0,0-0.16-0.23-0.59-0.19l0.02,1.96l0.59,0.09L171.19,135.57
	 M170.59,141.6l0.68,0.12v-3.34l-0.67-0.12L170.59,141.6z M171.37,144.94l-0.03-2.15l-0.69-0.09v2.15L171.37,144.94z"/>
</svg>
